<svg id="svg" version="1.1" xmlns="http://www.w3.org/2000/svg" xmlns:xlink="http://www.w3.org/1999/xlink" width="400" height="400" viewBox="0, 0, 400,400"><g id="svgg"><path id="path0" d="M179.003 0.275 C 177.025 0.362,175.234 0.606,175.023 0.817 C 174.812 1.028,173.517 1.200,172.144 1.200 C 170.771 1.200,169.536 1.380,169.400 1.600 C 169.264 1.820,168.184 2.000,167.000 2.000 C 165.816 2.000,164.736 2.180,164.600 2.400 C 164.464 2.620,163.474 2.800,162.400 2.800 C 161.326 2.800,160.336 2.980,160.200 3.200 C 160.064 3.420,159.254 3.600,158.400 3.600 C 157.546 3.600,156.736 3.780,156.600 4.000 C 156.464 4.220,155.643 4.400,154.776 4.400 C 153.909 4.400,153.200 4.580,153.200 4.800 C 153.200 5.020,152.491 5.200,151.624 5.200 C 150.757 5.200,149.936 5.380,149.800 5.600 C 149.664 5.820,149.034 6.000,148.400 6.000 C 147.766 6.000,147.136 6.180,147.000 6.400 C 146.864 6.620,146.234 6.800,145.600 6.800 C 144.966 6.800,144.336 6.980,144.200 7.200 C 144.064 7.420,143.434 7.600,142.800 7.600 C 142.166 7.600,141.536 7.780,141.400 8.000 C 141.264 8.220,140.623 8.400,139.976 8.400 C 139.329 8.400,138.800 8.591,138.800 8.824 C 138.800 9.057,138.641 9.149,138.446 9.028 C 138.104 8.817,136.250 9.293,134.600 10.017 C 134.160 10.209,132.270 10.928,130.400 11.613 C 128.530 12.298,126.550 13.049,126.000 13.283 C 125.450 13.516,124.640 13.845,124.200 14.013 C 122.984 14.477,120.340 15.620,119.039 16.244 C 118.400 16.550,117.635 16.800,117.339 16.800 C 117.042 16.800,116.800 16.980,116.800 17.200 C 116.800 17.420,116.556 17.600,116.258 17.600 C 115.960 17.600,114.295 18.319,112.558 19.198 C 110.821 20.077,109.190 20.797,108.933 20.798 C 108.677 20.799,108.407 20.935,108.333 21.100 C 108.205 21.389,105.566 22.918,103.703 23.783 C 103.210 24.013,102.805 24.335,102.803 24.500 C 102.801 24.665,102.526 24.800,102.192 24.800 C 101.858 24.800,100.823 25.281,99.892 25.868 C 98.961 26.456,98.200 26.861,98.200 26.770 C 98.200 26.678,97.632 27.007,96.938 27.502 C 96.244 27.996,95.479 28.400,95.238 28.400 C 94.997 28.400,94.800 28.539,94.800 28.708 C 94.800 28.878,93.990 29.459,93.000 30.000 C 92.010 30.541,91.200 31.100,91.200 31.243 C 91.200 31.386,90.660 31.727,90.000 32.000 C 89.340 32.273,88.800 32.655,88.800 32.849 C 88.800 33.042,88.564 33.200,88.275 33.200 C 87.987 33.200,87.364 33.560,86.892 34.000 C 86.420 34.440,85.873 34.800,85.676 34.800 C 85.479 34.800,84.754 35.340,84.063 36.000 C 83.372 36.660,82.671 37.200,82.504 37.200 C 82.337 37.201,81.720 37.606,81.134 38.100 C 79.074 39.838,78.588 40.220,77.200 41.193 C 76.430 41.732,75.581 42.360,75.314 42.587 C 74.727 43.086,74.326 43.401,72.000 45.196 C 71.010 45.959,69.723 47.083,69.140 47.692 C 68.556 48.301,67.926 48.802,67.740 48.804 C 67.553 48.806,65.650 50.561,63.510 52.704 C 61.371 54.847,58.985 57.230,58.208 58.000 C 51.651 64.502,48.803 67.451,48.801 67.740 C 48.801 67.926,48.301 68.556,47.692 69.140 C 47.083 69.723,45.959 71.010,45.196 72.000 C 43.401 74.326,43.086 74.727,42.587 75.314 C 42.360 75.581,41.738 76.430,41.206 77.200 C 40.673 77.970,39.914 78.891,39.519 79.247 C 39.124 79.603,38.800 80.098,38.800 80.347 C 38.800 80.596,38.650 80.800,38.468 80.800 C 38.285 80.800,37.880 81.292,37.568 81.893 C 37.255 82.494,36.505 83.511,35.900 84.152 C 35.295 84.794,34.800 85.479,34.800 85.676 C 34.800 85.873,34.440 86.420,34.000 86.892 C 33.560 87.364,33.200 87.987,33.200 88.275 C 33.200 88.564,33.032 88.800,32.827 88.800 C 32.622 88.800,32.340 89.159,32.201 89.598 C 32.062 90.036,31.728 90.621,31.459 90.898 C 31.190 91.174,30.536 92.120,30.006 93.000 C 29.476 93.880,28.943 94.690,28.821 94.800 C 28.590 95.009,28.167 95.734,26.504 98.768 C 25.953 99.776,25.343 100.771,25.151 100.980 C 24.958 101.189,24.800 101.669,24.800 102.047 C 24.800 102.424,24.665 102.793,24.500 102.867 C 24.211 102.995,22.682 105.634,21.817 107.497 C 21.587 107.990,21.265 108.395,21.100 108.397 C 20.935 108.399,20.800 108.760,20.800 109.200 C 20.800 109.640,20.664 110.000,20.498 110.000 C 20.331 110.000,19.958 110.585,19.667 111.300 C 19.377 112.015,18.793 113.292,18.370 114.138 C 17.946 114.984,17.600 115.929,17.600 116.238 C 17.600 116.547,17.420 116.800,17.200 116.800 C 16.980 116.800,16.800 117.042,16.800 117.339 C 16.800 117.635,16.550 118.400,16.244 119.039 C 15.679 120.217,14.581 122.742,13.999 124.200 C 13.823 124.640,13.302 125.853,12.840 126.896 C 12.378 127.938,12.000 129.063,12.000 129.396 C 12.000 129.728,11.790 130.000,11.533 130.000 C 11.277 130.000,11.171 130.104,11.298 130.232 C 11.565 130.498,10.479 133.954,9.894 134.700 C 9.679 134.975,9.605 135.200,9.731 135.200 C 9.856 135.200,9.693 135.838,9.367 136.618 C 9.041 137.397,8.881 138.207,9.011 138.418 C 9.141 138.628,9.057 138.800,8.824 138.800 C 8.591 138.800,8.400 139.329,8.400 139.976 C 8.400 140.623,8.220 141.264,8.000 141.400 C 7.780 141.536,7.600 142.177,7.600 142.824 C 7.600 143.471,7.420 144.000,7.200 144.000 C 6.980 144.000,6.800 144.619,6.800 145.376 C 6.800 146.133,6.620 146.864,6.400 147.000 C 6.180 147.136,6.000 147.766,6.000 148.400 C 6.000 149.034,5.820 149.664,5.600 149.800 C 5.380 149.936,5.200 150.857,5.200 151.847 C 5.200 152.945,5.044 153.551,4.800 153.400 C 4.559 153.251,4.400 153.788,4.400 154.753 C 4.400 155.633,4.220 156.464,4.000 156.600 C 3.780 156.736,3.600 157.546,3.600 158.400 C 3.600 159.254,3.420 160.064,3.200 160.200 C 2.980 160.336,2.800 161.326,2.800 162.400 C 2.800 163.474,2.620 164.464,2.400 164.600 C 2.180 164.736,2.000 165.816,2.000 167.000 C 2.000 168.184,1.820 169.264,1.600 169.400 C 1.380 169.536,1.200 170.771,1.200 172.144 C 1.200 173.607,0.993 174.847,0.700 175.140 C -0.029 175.869,-0.029 224.131,0.700 224.860 C 1.002 225.162,1.200 226.437,1.200 228.080 C 1.200 229.627,1.373 230.800,1.600 230.800 C 1.822 230.800,2.000 231.867,2.000 233.200 C 2.000 234.533,2.178 235.600,2.400 235.600 C 2.620 235.600,2.800 236.399,2.800 237.376 C 2.800 238.353,2.980 239.264,3.200 239.400 C 3.420 239.536,3.600 240.436,3.600 241.400 C 3.600 242.364,3.780 243.264,4.000 243.400 C 4.220 243.536,4.400 244.346,4.400 245.200 C 4.400 246.054,4.580 246.864,4.800 247.000 C 5.020 247.136,5.200 247.856,5.200 248.600 C 5.200 249.344,5.380 250.064,5.600 250.200 C 5.820 250.336,6.000 250.966,6.000 251.600 C 6.000 252.234,6.180 252.864,6.400 253.000 C 6.620 253.136,6.800 253.766,6.800 254.400 C 6.800 255.034,6.980 255.664,7.200 255.800 C 7.420 255.936,7.600 256.577,7.600 257.224 C 7.600 257.871,7.780 258.400,8.000 258.400 C 8.220 258.400,8.400 258.917,8.400 259.550 C 8.400 260.182,8.684 261.487,9.030 262.450 C 9.377 263.412,9.719 264.470,9.791 264.800 C 10.008 265.802,11.750 270.326,12.447 271.695 C 12.641 272.077,12.800 272.574,12.800 272.799 C 12.800 273.024,13.181 274.062,13.647 275.104 C 14.112 276.147,14.762 277.630,15.090 278.400 C 15.419 279.170,15.938 280.323,16.244 280.961 C 16.550 281.600,16.800 282.365,16.800 282.661 C 16.800 282.958,16.980 283.200,17.200 283.200 C 17.420 283.200,17.600 283.452,17.600 283.759 C 17.600 284.067,18.140 285.345,18.800 286.600 C 19.460 287.855,20.000 289.118,20.000 289.407 C 20.000 289.697,20.135 289.993,20.300 290.067 C 20.465 290.140,21.228 291.415,21.996 292.900 C 22.763 294.385,23.528 295.600,23.696 295.600 C 23.863 295.600,24.000 295.960,24.000 296.400 C 24.000 296.840,24.180 297.200,24.400 297.200 C 24.620 297.200,24.800 297.464,24.800 297.786 C 24.800 298.445,26.333 301.335,28.055 303.920 C 28.685 304.866,29.200 305.811,29.200 306.020 C 29.200 306.229,29.380 306.400,29.600 306.400 C 29.820 306.400,30.000 306.636,30.000 306.925 C 30.000 307.213,30.315 307.798,30.700 308.225 C 31.085 308.651,31.655 309.495,31.968 310.100 C 32.280 310.705,32.685 311.200,32.868 311.200 C 33.050 311.200,33.200 311.520,33.200 311.912 C 33.200 312.303,33.560 312.883,34.000 313.200 C 34.440 313.517,34.800 313.973,34.800 314.213 C 34.800 314.453,35.120 314.998,35.511 315.425 C 35.902 315.851,36.658 316.830,37.192 317.600 C 37.725 318.370,38.260 319.090,38.381 319.200 C 38.501 319.310,39.223 320.210,39.985 321.200 C 40.747 322.190,41.512 323.060,41.685 323.133 C 41.858 323.207,42.000 323.445,42.000 323.662 C 42.000 323.879,42.225 324.308,42.500 324.615 C 43.041 325.218,43.123 325.321,45.204 327.996 C 45.972 328.983,47.202 330.423,47.938 331.196 C 48.673 331.968,49.753 333.223,50.338 333.984 C 51.343 335.293,54.237 338.262,57.243 341.067 C 57.989 341.763,59.950 343.716,61.600 345.407 C 63.250 347.097,65.300 349.047,66.155 349.740 C 67.011 350.433,68.271 351.543,68.955 352.206 C 69.640 352.869,71.370 354.300,72.800 355.387 C 74.230 356.474,75.490 357.470,75.600 357.601 C 75.710 357.731,76.430 358.277,77.200 358.814 C 78.566 359.765,79.158 360.228,80.934 361.735 C 81.410 362.140,82.295 362.763,82.900 363.121 C 83.505 363.480,84.000 363.914,84.000 364.086 C 84.000 364.259,84.243 364.400,84.541 364.400 C 84.838 364.400,85.646 364.940,86.337 365.600 C 87.028 366.260,87.864 366.800,88.196 366.800 C 88.528 366.800,88.800 366.950,88.800 367.132 C 88.800 367.315,89.295 367.720,89.900 368.032 C 90.505 368.345,91.335 368.902,91.745 369.272 C 92.155 369.642,92.966 370.182,93.548 370.472 C 94.129 370.762,96.159 371.945,98.058 373.100 C 99.957 374.255,101.786 375.200,102.122 375.200 C 102.458 375.200,102.793 375.335,102.867 375.500 C 102.987 375.770,105.089 376.978,107.497 378.160 C 107.990 378.402,108.395 378.735,108.397 378.900 C 108.399 379.065,108.634 379.200,108.920 379.200 C 109.656 379.200,111.593 380.141,111.597 380.500 C 111.599 380.665,111.865 380.800,112.188 380.800 C 112.511 380.800,113.417 381.160,114.200 381.600 C 114.983 382.040,115.889 382.400,116.212 382.400 C 116.535 382.400,116.800 382.580,116.800 382.800 C 116.800 383.020,117.053 383.200,117.362 383.200 C 117.847 383.200,119.120 383.752,122.095 385.250 C 122.477 385.443,123.062 385.600,123.395 385.600 C 123.728 385.600,124.000 385.780,124.000 386.000 C 124.000 386.220,124.362 386.400,124.805 386.400 C 125.248 386.400,125.923 386.559,126.305 386.753 C 126.687 386.948,127.495 387.308,128.100 387.553 C 128.705 387.799,129.605 388.173,130.100 388.384 C 132.224 389.290,139.789 391.600,140.632 391.600 C 141.138 391.600,141.664 391.780,141.800 392.000 C 141.936 392.220,142.476 392.400,143.000 392.400 C 143.524 392.400,144.064 392.580,144.200 392.800 C 144.336 393.020,144.966 393.200,145.600 393.200 C 146.234 393.200,146.864 393.380,147.000 393.600 C 147.136 393.820,147.867 394.000,148.624 394.000 C 149.381 394.000,150.000 394.180,150.000 394.400 C 150.000 394.620,150.709 394.800,151.576 394.800 C 152.443 394.800,153.264 394.980,153.400 395.200 C 153.536 395.420,154.357 395.600,155.224 395.600 C 156.091 395.600,156.800 395.780,156.800 396.000 C 156.800 396.220,157.599 396.400,158.576 396.400 C 159.553 396.400,160.464 396.580,160.600 396.800 C 160.736 397.020,161.737 397.200,162.824 397.200 C 163.911 397.200,164.800 397.380,164.800 397.600 C 164.800 397.820,165.779 398.000,166.976 398.000 C 168.173 398.000,169.264 398.180,169.400 398.400 C 169.536 398.620,170.771 398.800,172.144 398.800 C 173.607 398.800,174.847 399.007,175.140 399.300 C 175.848 400.008,223.999 400.031,224.851 399.324 C 225.166 399.062,226.634 398.809,228.112 398.761 C 229.590 398.713,230.800 398.522,230.800 398.337 C 230.800 398.152,231.880 398.000,233.200 398.000 C 234.533 398.000,235.600 397.822,235.600 397.600 C 235.600 397.380,236.399 397.200,237.376 397.200 C 238.353 397.200,239.264 397.020,239.400 396.800 C 239.536 396.580,240.346 396.400,241.200 396.400 C 242.054 396.400,242.864 396.220,243.000 396.000 C 243.136 395.780,243.946 395.600,244.800 395.600 C 245.654 395.600,246.464 395.420,246.600 395.200 C 246.736 394.980,247.557 394.800,248.424 394.800 C 249.291 394.800,250.000 394.620,250.000 394.400 C 250.000 394.180,250.630 394.000,251.400 394.000 C 252.170 394.000,252.800 393.820,252.800 393.600 C 252.800 393.380,253.419 393.200,254.176 393.200 C 254.933 393.200,255.664 393.020,255.800 392.800 C 255.936 392.580,256.562 392.400,257.190 392.400 C 257.819 392.400,258.393 392.234,258.467 392.031 C 258.540 391.827,259.140 391.586,259.800 391.495 C 260.460 391.404,261.461 391.137,262.024 390.903 C 262.587 390.669,263.847 390.264,264.824 390.001 C 265.801 389.739,266.913 389.362,267.295 389.163 C 267.677 388.963,268.264 388.800,268.600 388.800 C 268.936 388.800,269.523 388.641,269.905 388.447 C 271.039 387.870,272.498 387.286,274.200 386.729 C 275.080 386.440,275.890 386.113,276.000 386.002 C 276.527 385.470,278.071 384.800,278.771 384.800 C 279.201 384.800,279.664 384.620,279.800 384.400 C 279.936 384.180,280.397 384.000,280.824 384.000 C 281.251 384.000,281.601 383.865,281.603 383.700 C 281.607 383.341,283.544 382.400,284.280 382.400 C 284.566 382.400,284.800 382.240,284.800 382.044 C 284.800 381.848,285.598 381.453,286.574 381.164 C 287.550 380.876,288.260 380.496,288.151 380.320 C 288.042 380.144,288.203 380.000,288.509 380.000 C 289.355 380.000,292.820 378.153,292.525 377.859 C 292.383 377.716,292.657 377.600,293.133 377.600 C 293.610 377.600,294.000 377.420,294.000 377.200 C 294.000 376.980,294.360 376.800,294.800 376.800 C 295.240 376.800,295.600 376.620,295.600 376.400 C 295.600 376.180,295.960 376.000,296.400 376.000 C 296.840 376.000,297.200 375.840,297.200 375.643 C 297.200 375.447,297.672 375.168,298.248 375.024 C 298.825 374.879,299.539 374.544,299.834 374.280 C 301.109 373.142,301.525 372.858,301.684 373.017 C 301.829 373.162,307.429 369.841,308.600 368.916 C 308.820 368.742,309.495 368.345,310.100 368.032 C 310.705 367.720,311.200 367.315,311.200 367.132 C 311.200 366.950,311.442 366.800,311.738 366.800 C 312.034 366.800,312.602 366.440,313.000 366.000 C 313.398 365.560,313.921 365.199,314.162 365.198 C 314.403 365.197,315.175 364.657,315.878 363.998 C 316.581 363.339,317.320 362.800,317.519 362.800 C 317.718 362.800,318.446 362.260,319.137 361.600 C 319.828 360.940,320.559 360.400,320.763 360.400 C 320.967 360.400,321.193 360.265,321.267 360.100 C 321.412 359.773,323.206 358.266,324.958 357.000 C 325.567 356.560,326.455 355.870,326.932 355.466 C 327.410 355.062,328.310 354.342,328.934 353.866 C 329.557 353.390,330.752 352.370,331.590 351.600 C 333.971 349.410,334.773 348.800,335.271 348.800 C 335.525 348.800,335.634 348.701,335.513 348.580 C 335.257 348.324,340.389 343.200,340.902 343.200 C 341.092 343.200,341.181 343.065,341.101 342.900 C 340.914 342.517,348.301 335.235,348.587 335.520 C 348.704 335.637,348.800 335.525,348.800 335.271 C 348.800 334.773,349.410 333.971,351.600 331.590 C 352.370 330.752,353.390 329.557,353.866 328.934 C 354.342 328.310,355.062 327.410,355.466 326.932 C 355.870 326.455,356.560 325.567,357.000 324.958 C 358.266 323.206,359.773 321.412,360.100 321.267 C 360.265 321.193,360.400 320.918,360.400 320.655 C 360.400 320.392,360.760 319.917,361.200 319.600 C 361.640 319.283,362.000 318.838,362.001 318.612 C 362.001 318.385,362.541 317.570,363.200 316.800 C 363.859 316.030,364.399 315.175,364.399 314.900 C 364.400 314.625,364.538 314.400,364.706 314.400 C 364.874 314.400,365.456 313.680,366.000 312.800 C 366.544 311.920,367.126 311.200,367.294 311.200 C 367.462 311.200,367.600 310.930,367.600 310.600 C 367.600 310.270,367.737 310.000,367.905 310.000 C 368.073 310.000,368.388 309.664,368.605 309.254 C 370.364 305.928,371.238 304.466,371.960 303.639 C 372.422 303.110,372.800 302.422,372.800 302.110 C 372.800 301.798,373.025 301.292,373.300 300.985 C 374.522 299.623,374.783 299.207,375.027 298.234 C 375.170 297.665,375.447 297.200,375.643 297.200 C 375.840 297.200,376.000 296.840,376.000 296.400 C 376.000 295.960,376.180 295.600,376.400 295.600 C 376.620 295.600,376.800 295.240,376.800 294.800 C 376.800 294.360,376.980 294.000,377.200 294.000 C 377.420 294.000,377.600 293.629,377.600 293.176 C 377.600 292.723,377.780 292.464,378.000 292.600 C 378.220 292.736,378.400 292.602,378.400 292.303 C 378.400 291.549,379.335 289.607,379.700 289.603 C 379.865 289.601,380.000 289.240,380.000 288.800 C 380.000 288.360,380.151 288.000,380.336 288.000 C 380.521 288.000,380.910 287.280,381.200 286.400 C 381.490 285.520,381.879 284.800,382.064 284.800 C 382.249 284.800,382.400 284.451,382.400 284.024 C 382.400 283.597,382.580 283.136,382.800 283.000 C 383.020 282.864,383.200 282.393,383.200 281.953 C 383.200 281.450,383.372 281.259,383.662 281.438 C 383.916 281.595,384.018 281.554,383.890 281.346 C 383.762 281.138,383.896 280.435,384.189 279.784 C 384.483 279.133,384.964 278.015,385.259 277.300 C 385.554 276.585,385.931 276.000,386.098 276.000 C 386.264 276.000,386.357 275.865,386.305 275.700 C 386.191 275.340,387.565 271.632,388.460 269.884 C 388.662 269.490,388.716 268.987,388.579 268.766 C 388.443 268.546,388.563 268.085,388.847 267.743 C 389.131 267.402,389.413 266.790,389.475 266.384 C 389.537 265.979,389.858 264.871,390.188 263.923 C 390.518 262.976,390.791 261.874,390.794 261.476 C 390.797 261.078,390.943 260.841,391.117 260.949 C 391.291 261.056,391.477 260.572,391.530 259.872 C 391.582 259.173,391.800 258.540,392.013 258.467 C 392.226 258.393,392.400 257.819,392.400 257.190 C 392.400 256.562,392.580 255.936,392.800 255.800 C 393.020 255.664,393.200 255.034,393.200 254.400 C 393.200 253.766,393.380 253.136,393.600 253.000 C 393.820 252.864,394.000 252.058,394.000 251.210 C 394.000 250.361,394.172 249.607,394.382 249.533 C 394.593 249.460,394.810 248.725,394.864 247.900 C 394.919 247.075,395.089 246.400,395.241 246.400 C 395.394 246.400,395.614 245.635,395.731 244.700 C 395.847 243.765,396.145 242.100,396.392 241.000 C 397.096 237.874,397.629 234.790,397.861 232.499 C 397.978 231.344,398.209 230.482,398.375 230.584 C 398.540 230.686,398.712 229.652,398.757 228.285 C 398.833 225.959,399.033 224.200,399.220 224.200 C 399.869 224.200,400.192 186.800,399.600 180.400 C 399.345 177.650,399.046 174.230,398.936 172.800 C 398.826 171.370,398.570 170.029,398.368 169.820 C 398.165 169.611,398.000 168.522,398.000 167.400 C 398.000 166.278,397.830 165.189,397.623 164.980 C 397.415 164.771,397.204 163.664,397.152 162.520 C 397.101 161.376,396.911 160.532,396.729 160.644 C 396.548 160.756,396.400 160.037,396.400 159.047 C 396.400 158.057,396.220 157.136,396.000 157.000 C 395.780 156.864,395.600 156.144,395.600 155.400 C 395.600 154.656,395.420 153.936,395.200 153.800 C 394.980 153.664,394.800 152.843,394.800 151.976 C 394.800 151.109,394.639 150.400,394.442 150.400 C 394.245 150.400,393.995 149.725,393.886 148.900 C 393.616 146.862,392.271 142.231,391.900 142.067 C 391.735 141.993,391.600 141.505,391.600 140.982 C 391.600 140.458,391.258 139.078,390.839 137.915 C 390.421 136.752,389.774 134.720,389.402 133.400 C 389.031 132.080,388.383 130.308,387.963 129.462 C 387.543 128.616,387.200 127.617,387.200 127.242 C 387.200 126.867,387.047 126.389,386.860 126.180 C 386.673 125.971,386.207 124.990,385.824 124.000 C 384.924 121.674,383.600 118.767,381.179 113.800 C 380.107 111.600,379.178 109.537,379.115 109.216 C 379.052 108.894,378.685 108.275,378.300 107.840 C 377.915 107.405,377.600 106.813,377.600 106.525 C 377.600 106.236,377.420 106.000,377.200 106.000 C 376.980 106.000,376.800 105.640,376.800 105.200 C 376.800 104.760,376.620 104.400,376.400 104.400 C 376.180 104.400,376.000 104.040,376.000 103.600 C 376.000 103.160,375.820 102.800,375.600 102.800 C 375.380 102.800,375.200 102.451,375.200 102.024 C 375.200 101.597,375.037 101.147,374.838 101.024 C 374.495 100.812,372.446 97.424,371.283 95.145 C 370.986 94.565,370.397 93.718,369.972 93.262 C 369.547 92.806,369.200 92.156,369.200 91.817 C 369.200 91.478,369.020 91.200,368.800 91.200 C 368.580 91.200,368.400 91.022,368.400 90.805 C 368.400 90.433,367.640 89.385,366.500 88.184 C 366.225 87.894,366.000 87.542,366.000 87.401 C 366.000 87.018,363.497 83.421,363.123 83.267 C 362.945 83.193,362.800 82.970,362.800 82.771 C 362.800 82.429,362.011 81.354,360.900 80.184 C 360.625 79.894,360.400 79.545,360.400 79.407 C 360.400 79.269,359.861 78.581,359.202 77.878 C 358.543 77.175,358.003 76.457,358.002 76.282 C 358.001 76.107,357.595 75.547,357.100 75.037 C 356.605 74.527,355.930 73.709,355.600 73.218 C 354.492 71.570,350.651 67.176,347.000 63.379 C 345.680 62.006,344.306 60.549,343.947 60.141 C 343.587 59.734,342.507 58.643,341.547 57.719 C 340.586 56.794,339.594 55.804,339.343 55.519 C 339.092 55.233,338.231 54.415,337.430 53.700 C 336.629 52.985,336.109 52.400,336.276 52.400 C 336.442 52.400,336.133 52.089,335.589 51.709 C 334.230 50.759,333.362 50.035,331.622 48.400 C 330.802 47.630,329.352 46.370,328.400 45.600 C 327.448 44.830,326.428 43.962,326.134 43.671 C 325.840 43.381,325.600 43.259,325.600 43.400 C 325.600 43.541,325.359 43.419,325.063 43.129 C 324.768 42.838,323.930 42.150,323.200 41.600 C 322.470 41.050,321.677 40.414,321.437 40.187 C 321.196 39.960,320.370 39.332,319.600 38.793 C 318.081 37.728,317.009 36.883,316.184 36.100 C 315.894 35.825,315.558 35.600,315.436 35.600 C 315.198 35.600,309.130 31.601,308.800 31.226 C 308.690 31.101,308.105 30.744,307.500 30.432 C 306.895 30.120,306.400 29.715,306.400 29.532 C 306.400 29.350,306.203 29.200,305.962 29.200 C 305.721 29.200,305.001 28.828,304.362 28.373 C 303.723 27.918,303.195 27.693,303.188 27.873 C 303.181 28.053,302.990 27.881,302.763 27.492 C 302.536 27.102,302.202 26.875,302.021 26.987 C 301.839 27.099,301.470 26.925,301.200 26.600 C 300.930 26.275,300.550 26.107,300.355 26.228 C 300.160 26.349,300.000 26.257,300.000 26.024 C 300.000 25.791,299.730 25.600,299.400 25.600 C 299.070 25.600,298.800 25.420,298.800 25.200 C 298.800 24.980,298.440 24.800,298.000 24.800 C 297.560 24.800,297.200 24.620,297.200 24.400 C 297.200 24.180,296.855 24.000,296.433 24.000 C 296.012 24.000,295.607 23.834,295.533 23.630 C 295.460 23.427,295.137 23.202,294.816 23.130 C 294.494 23.059,293.875 22.685,293.440 22.300 C 293.005 21.915,292.323 21.600,291.925 21.600 C 291.526 21.600,291.200 21.420,291.200 21.200 C 291.200 20.980,290.855 20.800,290.433 20.800 C 290.012 20.800,289.607 20.657,289.533 20.481 C 289.380 20.115,285.813 18.400,285.204 18.400 C 284.982 18.400,284.800 18.220,284.800 18.000 C 284.800 17.780,284.440 17.600,284.000 17.600 C 283.560 17.600,283.200 17.420,283.200 17.200 C 283.200 16.980,282.958 16.800,282.661 16.800 C 282.365 16.800,281.600 16.550,280.961 16.244 C 279.928 15.748,278.229 15.004,275.800 13.982 C 275.360 13.797,273.740 13.204,272.200 12.665 C 270.660 12.125,268.365 11.225,267.100 10.664 C 265.835 10.103,264.800 9.710,264.800 9.792 C 264.800 9.873,263.814 9.593,262.610 9.170 C 261.405 8.746,259.976 8.400,259.434 8.400 C 258.891 8.400,258.336 8.220,258.200 8.000 C 258.064 7.780,257.524 7.600,257.000 7.600 C 256.476 7.600,255.936 7.420,255.800 7.200 C 255.664 6.980,255.034 6.800,254.400 6.800 C 253.766 6.800,253.136 6.620,253.000 6.400 C 252.864 6.180,252.133 6.000,251.376 6.000 C 250.619 6.000,250.000 5.820,250.000 5.600 C 250.000 5.380,249.291 5.200,248.424 5.200 C 247.557 5.200,246.736 5.020,246.600 4.800 C 246.464 4.580,245.744 4.400,245.000 4.400 C 244.256 4.400,243.536 4.220,243.400 4.000 C 243.264 3.780,242.364 3.600,241.400 3.600 C 240.436 3.600,239.536 3.420,239.400 3.200 C 239.264 2.980,238.353 2.800,237.376 2.800 C 236.399 2.800,235.600 2.620,235.600 2.400 C 235.600 2.178,234.541 2.000,233.224 2.000 C 231.917 2.000,230.736 1.820,230.600 1.600 C 230.464 1.380,229.229 1.200,227.856 1.200 C 226.434 1.200,225.151 0.991,224.875 0.715 C 224.394 0.234,187.860 -0.116,179.003 0.275 M265.905 123.553 C 266.287 123.748,267.140 124.147,267.800 124.441 C 271.665 126.162,275.820 130.028,278.792 134.666 C 279.896 136.390,280.800 137.611,280.800 137.380 C 280.800 137.149,280.587 136.747,280.327 136.487 C 280.066 136.226,279.954 135.913,280.076 135.791 C 280.767 135.099,286.983 144.171,289.430 149.443 C 299.848 171.889,302.866 207.549,296.798 236.500 C 296.579 237.545,296.239 239.165,296.042 240.100 C 290.369 267.052,274.864 284.251,261.821 278.061 C 258.256 276.369,253.503 272.554,254.326 272.046 C 254.561 271.900,253.772 271.267,252.572 270.639 C 250.396 269.500,245.503 264.700,244.682 262.900 C 244.456 262.405,244.120 262.000,243.936 262.000 C 243.751 262.000,243.600 261.730,243.600 261.400 C 243.600 261.070,243.420 260.800,243.200 260.800 C 242.980 260.800,242.800 260.530,242.800 260.200 C 242.800 259.870,242.662 259.600,242.494 259.600 C 242.326 259.600,241.882 258.925,241.506 258.100 C 241.131 257.275,240.552 256.150,240.219 255.600 C 239.549 254.493,237.625 250.178,236.830 248.000 C 236.549 247.230,236.165 246.240,235.976 245.800 C 235.385 244.420,233.290 237.136,232.568 233.949 C 231.688 230.064,231.860 229.600,234.182 229.600 C 236.063 229.600,239.296 228.961,240.495 228.353 C 240.877 228.159,241.464 228.000,241.800 228.000 C 242.136 228.000,242.813 227.792,243.305 227.538 C 243.797 227.283,244.540 226.906,244.955 226.700 C 248.775 224.801,250.580 223.491,253.600 220.427 C 256.551 217.433,257.600 216.166,257.600 215.595 C 257.600 215.378,257.780 215.200,258.000 215.200 C 258.220 215.200,258.400 214.930,258.400 214.600 C 258.400 214.270,258.580 214.000,258.800 214.000 C 259.020 214.000,259.200 213.640,259.200 213.200 C 259.200 212.760,259.380 212.400,259.600 212.400 C 259.820 212.400,260.000 212.128,260.000 211.795 C 260.000 211.462,260.180 210.832,260.400 210.395 C 260.620 209.958,260.980 209.242,261.200 208.805 C 261.420 208.368,261.600 207.659,261.600 207.229 C 261.600 206.799,261.780 206.336,262.000 206.200 C 262.220 206.064,262.400 205.257,262.400 204.407 C 262.400 203.557,262.610 201.952,262.866 200.841 C 263.659 197.407,262.099 189.165,259.781 184.540 C 258.381 181.746,255.024 176.814,254.588 176.909 C 254.362 176.959,252.910 176.416,251.362 175.702 C 248.252 174.269,242.992 172.800,240.969 172.800 C 238.851 172.800,238.388 172.485,238.823 171.340 C 239.030 170.794,239.200 169.910,239.200 169.374 C 239.200 168.838,239.416 168.400,239.680 168.400 C 241.269 168.400,238.873 167.640,235.860 167.189 C 233.364 166.815,232.249 166.473,232.078 166.029 C 231.767 165.226,230.237 172.893,229.209 180.400 C 226.440 200.631,227.381 224.543,231.636 242.100 C 233.180 248.469,235.493 255.640,237.247 259.499 C 239.179 263.749,239.126 263.845,235.918 261.947 C 233.420 260.470,223.655 255.600,223.191 255.600 C 223.014 255.600,222.487 256.815,222.020 258.300 C 217.349 273.147,203.552 282.799,187.000 282.799 C 176.492 282.799,166.467 278.916,158.924 271.924 C 156.679 269.843,156.615 269.677,158.420 270.610 C 160.564 271.719,159.647 270.886,156.700 269.048 C 154.340 267.576,150.951 264.563,148.178 261.471 C 143.771 256.556,139.600 245.864,139.600 239.481 L 139.600 236.974 136.762 236.449 C 130.672 235.323,120.800 229.185,120.800 226.526 C 120.800 226.237,120.539 226.000,120.219 226.000 C 119.445 226.000,113.653 220.277,112.097 217.973 C 101.363 202.090,105.117 181.191,120.592 170.671 C 125.595 167.270,129.502 166.179,138.800 165.586 C 147.537 165.029,156.051 164.170,162.200 163.223 C 168.599 162.238,169.944 162.010,171.800 161.595 C 172.900 161.349,174.520 161.051,175.400 160.933 C 176.280 160.815,177.171 160.556,177.380 160.359 C 177.589 160.162,178.433 160.000,179.256 160.000 C 180.079 160.000,180.864 159.820,181.000 159.600 C 181.136 159.380,181.766 159.200,182.400 159.200 C 183.034 159.200,183.664 159.020,183.800 158.800 C 183.936 158.580,184.579 158.400,185.229 158.400 C 185.879 158.400,186.723 158.238,187.105 158.039 C 187.487 157.840,188.610 157.460,189.600 157.193 C 190.590 156.927,191.760 156.573,192.200 156.407 C 192.640 156.241,194.260 155.711,195.800 155.230 C 199.093 154.200,202.715 152.887,203.695 152.368 C 204.077 152.166,204.557 152.000,204.761 152.000 C 205.413 152.000,216.442 147.204,220.800 145.026 C 226.266 142.294,230.149 140.258,230.400 139.994 C 232.534 137.747,233.301 139.267,231.759 142.689 C 230.334 145.851,230.129 146.362,229.545 148.200 C 229.265 149.080,228.893 149.971,228.718 150.180 C 227.581 151.537,231.137 150.025,235.900 147.126 L 237.200 146.335 237.241 147.267 C 237.272 147.987,237.373 147.880,237.684 146.800 C 238.637 143.483,243.119 135.394,245.943 131.895 C 247.121 130.435,250.314 127.200,250.577 127.200 C 250.718 127.200,251.194 126.864,251.634 126.454 C 252.075 126.043,253.282 125.304,254.318 124.810 C 255.353 124.317,256.470 123.763,256.800 123.580 C 257.609 123.131,265.033 123.109,265.905 123.553 M281.160 138.600 C 281.834 139.905,282.388 140.628,282.385 140.200 C 282.383 139.980,282.014 139.350,281.564 138.800 C 281.021 138.136,280.885 138.069,281.160 138.600 M234.046 156.467 C 234.021 156.834,233.896 157.464,233.770 157.867 C 233.552 158.562,233.563 158.563,233.997 157.887 C 234.248 157.496,234.373 156.866,234.273 156.487 C 234.111 155.868,234.088 155.866,234.046 156.467 M232.446 162.867 C 232.421 163.234,232.296 163.864,232.170 164.267 C 231.952 164.962,231.963 164.963,232.397 164.287 C 232.648 163.896,232.773 163.266,232.673 162.887 C 232.511 162.268,232.488 162.266,232.446 162.867 M224.046 168.067 C 224.021 168.434,223.896 169.064,223.770 169.467 C 223.552 170.162,223.563 170.163,223.997 169.487 C 224.248 169.096,224.373 168.466,224.273 168.087 C 224.111 167.468,224.088 167.466,224.046 168.067 M291.844 171.800 C 292.173 173.271,292.402 173.590,292.394 172.567 C 292.391 172.145,292.205 171.530,291.982 171.200 C 291.685 170.762,291.648 170.924,291.844 171.800 M223.249 172.800 C 223.216 173.130,223.089 173.850,222.967 174.400 C 222.775 175.264,222.807 175.303,223.199 174.688 C 223.448 174.297,223.575 173.577,223.481 173.088 C 223.386 172.600,223.282 172.470,223.249 172.800 M250.400 172.925 C 250.400 172.994,250.985 173.579,251.700 174.225 L 253.000 175.400 251.825 174.100 C 250.730 172.888,250.400 172.616,250.400 172.925 M292.638 177.400 C 292.970 179.384,293.202 179.704,293.194 178.167 C 293.191 177.525,293.004 176.730,292.779 176.400 C 292.486 175.970,292.446 176.254,292.638 177.400 M222.233 180.833 C 222.083 181.966,222.041 182.974,222.139 183.072 C 222.237 183.171,222.445 182.328,222.600 181.200 C 222.755 180.072,222.798 179.064,222.694 178.961 C 222.591 178.858,222.384 179.700,222.233 180.833 M293.510 186.400 C 293.618 188.270,293.773 189.875,293.854 189.967 C 294.130 190.282,293.920 184.999,293.616 184.000 C 293.449 183.450,293.401 184.530,293.510 186.400 M221.530 193.900 C 221.425 196.705,221.448 201.070,221.582 203.600 C 221.770 207.160,221.835 206.006,221.871 198.500 C 221.922 187.697,221.816 186.262,221.530 193.900 M293.671 208.600 C 293.627 209.700,293.504 211.320,293.397 212.200 L 293.203 213.800 293.621 212.470 C 293.850 211.739,293.974 210.119,293.895 208.870 L 293.751 206.600 293.671 208.600 M222.272 215.400 C 222.399 216.500,222.569 217.475,222.651 217.567 C 222.932 217.882,222.720 215.399,222.380 214.400 C 222.151 213.726,222.116 214.051,222.272 215.400 M292.854 217.800 C 292.819 218.240,292.689 219.050,292.567 219.600 C 292.375 220.463,292.407 220.503,292.798 219.890 C 293.047 219.499,293.177 218.689,293.086 218.090 C 292.978 217.379,292.897 217.279,292.854 217.800 M222.868 221.600 C 222.888 222.639,223.518 224.346,223.532 223.400 C 223.538 222.960,223.389 222.240,223.200 221.800 C 222.989 221.310,222.861 221.232,222.868 221.600 M292.054 223.667 C 292.025 224.034,291.884 224.664,291.741 225.067 C 291.541 225.633,291.595 225.696,291.975 225.346 C 292.246 225.097,292.387 224.467,292.288 223.946 C 292.190 223.426,292.084 223.300,292.054 223.667 M223.634 226.800 C 223.646 227.130,223.811 227.760,224.000 228.200 L 224.344 229.000 224.366 228.200 C 224.378 227.760,224.213 227.130,224.000 226.800 C 223.655 226.267,223.615 226.267,223.634 226.800 M291.246 228.267 C 291.221 228.524,291.084 229.064,290.941 229.467 C 290.740 230.036,290.794 230.097,291.179 229.742 C 291.452 229.491,291.589 228.951,291.484 228.542 C 291.379 228.134,291.272 228.010,291.246 228.267 M132.900 230.696 C 134.165 230.775,136.235 230.775,137.500 230.696 C 138.765 230.616,137.730 230.551,135.200 230.551 C 132.670 230.551,131.635 230.616,132.900 230.696 M224.644 231.800 C 224.973 233.271,225.202 233.590,225.194 232.567 C 225.191 232.145,225.005 231.530,224.782 231.200 C 224.485 230.762,224.448 230.924,224.644 231.800 M148.550 231.787 C 148.426 232.110,148.417 232.605,148.531 232.887 C 148.644 233.169,148.751 233.005,148.768 232.522 C 148.796 231.768,149.068 231.623,150.700 231.494 L 152.600 231.344 150.687 231.272 C 149.326 231.221,148.710 231.369,148.550 231.787 M156.700 232.282 C 157.195 232.378,158.005 232.378,158.500 232.282 C 158.995 232.187,158.590 232.109,157.600 232.109 C 156.610 232.109,156.205 232.187,156.700 232.282 M139.693 234.000 C 139.693 234.770,139.775 235.085,139.876 234.700 C 139.976 234.315,139.976 233.685,139.876 233.300 C 139.775 232.915,139.693 233.230,139.693 234.000 M162.100 233.076 C 162.485 233.176,163.115 233.176,163.500 233.076 C 163.885 232.975,163.570 232.893,162.800 232.893 C 162.030 232.893,161.715 232.975,162.100 233.076 M154.455 239.867 C 153.412 245.062,154.514 251.480,157.447 257.287 C 158.532 259.435,158.604 259.762,157.900 259.365 C 156.628 258.646,159.259 260.812,161.400 262.246 C 177.936 273.321,199.246 268.789,206.759 252.600 C 207.270 251.500,207.838 250.303,208.022 249.941 C 208.258 249.474,208.158 249.223,207.678 249.080 C 207.305 248.968,205.380 248.302,203.400 247.598 C 197.093 245.358,187.609 242.643,182.200 241.531 C 181.100 241.304,179.480 240.959,178.600 240.764 C 176.683 240.338,171.198 239.376,167.600 238.834 C 166.170 238.619,163.809 238.253,162.354 238.021 C 160.899 237.790,158.628 237.600,157.309 237.600 L 154.910 237.600 154.455 239.867 M285.600 248.119 C 285.600 248.257,285.227 249.322,284.771 250.485 C 284.316 251.648,284.109 252.420,284.311 252.200 C 284.870 251.593,286.064 248.330,285.817 248.083 C 285.698 247.964,285.600 247.980,285.600 248.119 M216.446 250.067 C 216.421 250.434,216.296 251.064,216.170 251.467 C 215.952 252.162,215.963 252.163,216.397 251.487 C 216.648 251.096,216.773 250.466,216.673 250.087 C 216.511 249.468,216.488 249.466,216.446 250.067 M213.848 257.460 C 212.513 261.606,206.649 267.945,200.992 271.356 C 197.872 273.237,198.514 273.218,201.935 271.327 C 206.739 268.672,214.987 259.114,214.273 257.030 C 214.192 256.793,214.001 256.987,213.848 257.460 M280.653 258.900 L 279.933 260.200 280.758 259.200 C 281.489 258.313,281.814 257.600,281.486 257.600 C 281.424 257.600,281.049 258.185,280.653 258.900 M273.785 267.700 L 271.800 269.800 273.900 267.815 C 275.055 266.723,276.000 265.778,276.000 265.715 C 276.000 265.417,275.629 265.749,273.785 267.700 M258.400 273.194 C 258.730 273.411,259.435 273.591,259.967 273.594 C 261.251 273.602,260.925 273.375,259.200 273.058 C 258.215 272.877,257.978 272.918,258.400 273.194 M263.000 273.200 L 261.800 273.505 263.076 273.553 C 263.778 273.579,264.464 273.420,264.600 273.200 C 264.874 272.757,264.740 272.757,263.000 273.200 M174.000 276.394 C 174.330 276.611,175.035 276.791,175.567 276.794 C 176.851 276.802,176.525 276.575,174.800 276.258 C 173.815 276.077,173.578 276.118,174.000 276.394 M186.400 276.400 L 185.400 276.720 186.476 276.760 C 187.068 276.782,187.664 276.620,187.800 276.400 C 188.081 275.945,187.820 275.945,186.400 276.400 " stroke="none" fill="#9750a1" fill-rule="evenodd"></path><path id="path1" d="M256.800 124.497 C 252.454 126.110,247.541 130.317,244.490 135.037 C 243.792 136.117,243.072 137.180,242.889 137.400 C 242.408 137.981,238.598 145.954,238.015 147.600 C 237.742 148.370,237.364 149.360,237.175 149.800 C 236.000 152.528,233.433 161.576,232.983 164.576 L 232.709 166.400 234.655 166.414 C 237.802 166.437,242.304 167.694,246.090 169.606 C 273.620 183.512,266.831 225.391,236.294 230.035 C 232.468 230.617,232.194 231.416,233.976 236.800 C 234.158 237.350,234.532 238.610,234.807 239.600 C 235.647 242.623,236.817 246.162,237.219 246.895 C 237.429 247.277,237.600 247.766,237.600 247.983 C 237.600 248.378,238.716 250.949,240.819 255.400 C 248.263 271.149,261.239 276.982,271.333 269.116 C 279.219 262.971,286.341 249.039,289.643 233.300 C 289.839 232.365,290.179 230.745,290.398 229.700 C 295.671 204.541,293.927 173.227,285.993 150.600 C 284.599 146.624,280.515 137.877,279.956 137.667 C 279.760 137.593,279.600 137.356,279.600 137.139 C 279.600 136.668,277.436 133.470,276.013 131.839 C 269.797 124.712,263.106 122.155,256.800 124.497 M229.800 141.016 C 224.928 143.941,206.935 152.400,205.585 152.400 C 205.196 152.400,204.690 152.615,202.905 153.538 C 202.413 153.792,201.684 154.000,201.285 154.000 C 200.886 154.000,200.389 154.143,200.180 154.318 C 199.971 154.493,199.080 154.865,198.200 155.145 C 197.320 155.424,196.240 155.800,195.800 155.981 C 195.360 156.161,194.190 156.530,193.200 156.800 C 192.210 157.070,191.040 157.430,190.600 157.600 C 189.846 157.891,188.316 158.319,184.600 159.279 C 183.720 159.507,182.550 159.830,182.000 159.997 C 181.450 160.164,180.010 160.512,178.800 160.770 C 177.590 161.028,175.880 161.402,175.000 161.600 C 166.187 163.590,154.674 165.088,139.600 166.208 C 123.198 167.426,115.468 172.171,109.637 184.600 C 102.383 200.061,108.815 220.058,123.310 227.110 C 128.105 229.443,128.398 229.530,132.267 229.790 C 134.210 229.921,136.948 230.128,138.352 230.251 L 140.904 230.475 140.584 232.937 C 140.125 236.466,140.191 240.597,140.753 243.600 C 141.021 245.030,141.341 246.787,141.464 247.504 C 141.587 248.221,141.849 248.906,142.044 249.027 C 142.240 249.148,142.400 249.512,142.400 249.835 C 142.400 251.034,145.283 256.442,147.537 259.472 C 152.166 265.695,158.454 270.514,165.400 273.163 C 166.720 273.666,168.160 274.227,168.600 274.409 C 172.081 275.848,181.985 276.634,186.800 275.853 C 200.487 273.632,211.861 264.389,215.169 252.800 C 216.012 249.849,216.349 249.200,217.039 249.200 C 217.692 249.200,227.765 254.121,230.361 255.709 L 231.722 256.541 231.442 255.426 C 231.288 254.813,230.826 253.567,230.415 252.656 C 230.004 251.745,229.435 250.280,229.152 249.400 C 228.869 248.520,228.493 247.629,228.318 247.420 C 228.143 247.211,228.000 246.714,228.000 246.315 C 228.000 245.916,227.838 245.277,227.639 244.895 C 227.440 244.513,227.062 243.390,226.797 242.400 C 226.533 241.410,226.155 240.187,225.958 239.681 C 225.761 239.176,225.600 238.331,225.600 237.805 C 225.600 237.278,225.444 236.751,225.253 236.633 C 225.062 236.515,224.795 235.649,224.659 234.709 C 224.524 233.769,224.231 232.100,224.008 231.000 C 220.282 212.577,219.975 190.019,223.180 170.000 C 223.585 167.470,223.954 165.608,224.822 161.700 C 225.054 160.655,225.344 159.213,225.466 158.496 C 225.588 157.779,225.849 157.094,226.044 156.973 C 226.240 156.852,226.400 156.311,226.400 155.771 C 226.400 155.231,226.562 154.477,226.761 154.095 C 226.960 153.713,227.352 152.590,227.633 151.600 C 227.914 150.610,228.254 149.620,228.389 149.400 C 228.523 149.180,228.866 148.280,229.150 147.400 C 229.434 146.520,229.904 145.260,230.195 144.600 C 231.038 142.687,232.000 140.316,232.000 140.151 C 232.000 139.832,231.341 140.091,229.800 141.016 M157.902 231.606 C 159.278 231.813,161.708 232.180,163.302 232.422 C 172.070 233.753,189.761 238.049,194.600 240.021 C 195.040 240.201,196.570 240.731,198.000 241.200 C 199.430 241.669,201.050 242.245,201.600 242.480 C 202.150 242.715,202.960 243.039,203.400 243.200 C 203.840 243.361,204.650 243.685,205.200 243.920 C 205.750 244.155,206.874 244.575,207.698 244.853 C 209.336 245.407,209.898 246.423,209.298 247.748 C 209.085 248.216,208.693 249.320,208.427 250.200 C 200.987 274.805,162.797 275.024,150.464 250.533 C 147.884 245.409,146.659 236.019,148.050 232.028 L 148.500 230.737 151.950 230.983 C 153.848 231.119,156.526 231.399,157.902 231.606 " stroke="none" fill="#fbfbfb" fill-rule="evenodd"></path><path id="path2" d="M331.600 48.204 C 331.600 48.601,333.717 50.417,333.930 50.203 C 334.100 50.033,333.522 49.413,332.298 48.451 C 331.914 48.149,331.600 48.038,331.600 48.204 M349.206 65.450 C 349.215 65.943,351.571 68.562,351.800 68.333 C 351.904 68.229,351.361 67.459,350.595 66.622 C 349.828 65.785,349.203 65.257,349.206 65.450 M373.474 99.021 C 374.034 100.022,374.562 100.771,374.648 100.685 C 374.864 100.470,373.065 97.207,372.728 97.203 C 372.579 97.201,372.914 98.019,373.474 99.021 M389.849 135.066 C 390.362 137.137,391.166 138.736,391.184 137.724 C 391.193 137.242,391.020 136.736,390.800 136.600 C 390.580 136.464,390.400 135.924,390.400 135.400 C 390.400 134.876,390.213 134.332,389.984 134.190 C 389.710 134.021,389.664 134.321,389.849 135.066 M280.017 135.688 C 280.008 135.846,280.393 136.656,280.874 137.488 C 283.790 142.536,286.797 149.700,288.433 155.500 C 288.635 156.215,288.994 157.475,289.230 158.300 C 289.467 159.125,289.827 160.565,290.030 161.500 C 290.234 162.435,290.590 164.055,290.821 165.100 C 291.751 169.296,292.607 174.696,293.278 180.600 C 293.891 186.001,293.875 211.070,293.254 216.200 C 292.988 218.400,292.672 221.280,292.551 222.600 C 292.431 223.920,292.168 225.171,291.966 225.380 C 291.765 225.589,291.600 226.613,291.600 227.656 C 291.600 228.699,291.420 229.664,291.200 229.800 C 290.980 229.936,290.800 230.746,290.800 231.600 C 290.800 232.454,290.620 233.264,290.400 233.400 C 290.180 233.536,290.000 234.168,290.000 234.805 C 290.000 235.441,289.839 236.376,289.642 236.881 C 289.445 237.387,289.062 238.610,288.791 239.600 C 284.195 256.388,275.318 269.750,267.000 272.401 C 266.120 272.681,265.021 273.082,264.558 273.292 C 263.572 273.738,259.215 273.495,257.200 272.881 C 256.430 272.646,255.395 272.331,254.900 272.180 C 252.320 271.396,257.198 275.719,261.112 277.686 C 274.659 284.494,290.223 267.747,296.042 240.100 C 296.239 239.165,296.579 237.545,296.798 236.500 C 304.429 200.091,297.576 155.240,281.626 137.200 C 280.750 136.210,280.026 135.530,280.017 135.688 M236.200 146.938 C 235.760 147.247,233.910 148.277,232.090 149.229 C 228.701 151.000,227.600 152.228,227.600 154.238 C 227.600 154.741,227.420 155.264,227.200 155.400 C 226.980 155.536,226.800 156.166,226.800 156.800 C 226.800 157.434,226.639 158.052,226.442 158.174 C 226.245 158.295,225.987 159.071,225.868 159.897 C 225.749 160.724,225.451 162.300,225.205 163.400 C 222.598 175.061,221.476 190.502,222.079 206.400 C 222.461 216.450,222.870 220.435,224.402 229.000 C 224.638 230.320,224.933 232.120,225.057 233.000 C 225.181 233.880,225.444 234.771,225.641 234.980 C 225.838 235.189,226.000 235.943,226.000 236.656 C 226.000 237.369,226.180 238.064,226.400 238.200 C 226.620 238.336,226.800 238.829,226.800 239.295 C 226.800 240.196,227.465 242.539,228.049 243.695 C 228.242 244.077,228.400 244.741,228.400 245.171 C 228.400 245.601,228.580 246.064,228.800 246.200 C 229.020 246.336,229.200 246.799,229.200 247.229 C 229.200 247.659,229.359 248.323,229.553 248.705 C 229.961 249.507,230.776 251.438,231.197 252.600 C 231.356 253.040,231.851 254.143,232.297 255.051 C 233.559 257.622,232.951 257.890,229.759 256.169 C 228.242 255.351,224.750 253.562,222.000 252.193 L 217.000 249.706 216.458 251.553 C 215.675 254.221,214.791 256.402,213.278 259.400 C 210.575 264.758,206.006 269.267,200.557 271.954 C 198.600 272.919,196.687 273.864,196.305 274.054 C 195.923 274.244,195.259 274.400,194.829 274.400 C 194.399 274.400,193.936 274.580,193.800 274.800 C 193.664 275.020,193.124 275.200,192.600 275.200 C 192.076 275.200,191.536 275.380,191.400 275.600 C 191.264 275.820,190.479 276.000,189.656 276.000 C 188.833 276.000,187.971 276.189,187.741 276.419 C 186.958 277.202,172.507 276.553,170.200 275.631 C 169.760 275.455,168.680 275.094,167.800 274.829 C 165.530 274.145,165.037 273.933,160.915 271.856 C 158.889 270.835,157.145 270.000,157.039 270.000 C 156.934 270.000,157.782 270.866,158.924 271.924 C 169.383 281.618,183.776 285.030,198.412 281.285 C 208.800 278.627,218.639 269.048,222.020 258.300 C 222.487 256.815,223.014 255.600,223.191 255.600 C 223.655 255.600,233.420 260.470,235.918 261.947 C 239.126 263.845,239.179 263.749,237.247 259.499 C 235.891 256.517,233.445 249.273,232.419 245.200 C 230.972 239.460,230.559 237.528,229.812 233.000 C 225.349 205.953,228.793 164.659,236.855 148.553 C 237.551 147.161,237.182 146.251,236.200 146.938 M239.700 168.297 C 239.425 168.390,239.200 168.890,239.200 169.407 C 239.200 169.925,239.030 170.794,238.823 171.340 C 238.388 172.485,238.851 172.800,240.969 172.800 C 243.072 172.800,248.370 174.304,251.512 175.792 C 254.880 177.388,254.853 176.920,251.407 174.006 C 247.857 171.005,241.234 167.774,239.700 168.297 M121.630 227.872 C 125.340 231.975,130.289 234.938,135.600 236.234 C 139.401 237.162,139.476 237.131,139.696 234.500 C 139.802 233.235,140.023 231.885,140.187 231.500 C 140.461 230.857,140.121 230.800,136.049 230.800 C 130.650 230.800,128.216 230.308,124.462 228.457 C 123.506 227.986,122.471 227.600,122.162 227.600 C 121.853 227.600,121.600 227.420,121.600 227.200 C 121.600 226.980,121.389 226.800,121.130 226.800 C 120.872 226.800,121.097 227.283,121.630 227.872 M148.455 233.867 C 147.067 240.782,149.691 249.822,154.940 256.200 C 158.121 260.066,159.066 260.491,157.474 257.340 C 154.513 251.478,153.408 245.081,154.455 239.867 L 154.910 237.600 157.309 237.600 C 158.628 237.600,160.899 237.790,162.354 238.021 C 163.809 238.253,166.170 238.619,167.600 238.834 C 171.198 239.376,176.683 240.338,178.600 240.764 C 179.480 240.959,181.100 241.304,182.200 241.531 C 187.609 242.643,197.093 245.358,203.400 247.598 C 208.885 249.547,208.400 249.562,208.400 247.447 C 208.400 246.064,208.248 245.600,207.795 245.600 C 207.462 245.600,206.877 245.441,206.495 245.247 C 206.113 245.052,205.260 244.671,204.600 244.400 C 203.940 244.129,203.087 243.748,202.705 243.553 C 202.323 243.359,201.736 243.200,201.400 243.200 C 201.064 243.200,200.432 243.020,199.995 242.800 C 199.558 242.580,198.842 242.220,198.405 242.000 C 197.968 241.780,197.259 241.600,196.829 241.600 C 196.399 241.600,195.936 241.420,195.800 241.200 C 195.664 240.980,195.201 240.800,194.771 240.800 C 194.341 240.800,193.677 240.638,193.295 240.439 C 192.913 240.240,191.790 239.860,190.800 239.593 C 189.810 239.327,188.640 238.970,188.200 238.800 C 187.760 238.630,186.680 238.304,185.800 238.076 C 184.920 237.848,182.850 237.299,181.200 236.857 C 177.865 235.963,165.346 233.473,161.000 232.839 C 159.460 232.614,156.905 232.244,155.323 232.015 C 153.741 231.787,151.650 231.600,150.678 231.600 L 148.910 231.600 148.455 233.867 M391.044 260.900 C 390.972 261.175,390.723 262.030,390.491 262.800 C 389.524 266.012,389.508 266.104,389.957 265.826 C 390.201 265.676,390.400 265.124,390.400 264.600 C 390.400 264.076,390.560 263.548,390.756 263.427 C 390.951 263.306,391.185 262.576,391.275 261.804 C 391.436 260.429,391.303 259.910,391.044 260.900 M370.848 305.200 C 370.353 306.080,370.026 306.800,370.121 306.800 C 370.216 306.800,370.770 306.080,371.353 305.200 C 371.935 304.320,372.262 303.600,372.079 303.600 C 371.897 303.600,371.343 304.320,370.848 305.200 M362.493 317.600 C 362.218 318.040,362.131 318.400,362.300 318.400 C 362.469 318.400,362.832 318.040,363.107 317.600 C 363.382 317.160,363.469 316.800,363.300 316.800 C 363.131 316.800,362.768 317.160,362.493 317.600 M357.845 323.788 C 357.480 324.344,357.359 324.800,357.577 324.800 C 358.020 324.800,358.964 323.230,358.687 322.953 C 358.589 322.855,358.210 323.231,357.845 323.788 M354.700 327.788 C 353.744 329.103,353.814 329.536,354.800 328.400 C 355.240 327.893,355.600 327.325,355.600 327.139 C 355.600 326.635,355.470 326.729,354.700 327.788 M350.523 332.697 C 350.041 333.292,349.724 333.858,349.820 333.954 C 350.038 334.171,351.600 332.402,351.600 331.939 C 351.600 331.432,351.481 331.516,350.523 332.697 M48.800 332.567 C 48.800 332.988,50.005 334.128,50.221 333.912 C 50.322 333.811,50.044 333.402,49.602 333.002 C 49.161 332.603,48.800 332.407,48.800 332.567 M332.621 350.616 C 331.991 351.157,331.656 351.600,331.877 351.600 C 332.393 351.600,334.186 350.053,333.947 349.814 C 333.847 349.714,333.250 350.075,332.621 350.616 M66.800 350.700 C 66.800 350.869,67.160 351.232,67.600 351.507 C 68.040 351.782,68.400 351.869,68.400 351.700 C 68.400 351.531,68.040 351.168,67.600 350.893 C 67.160 350.618,66.800 350.531,66.800 350.700 M327.656 354.813 C 327.136 355.246,326.884 355.600,327.094 355.600 C 327.305 355.600,327.893 355.240,328.400 354.800 C 329.593 353.765,328.899 353.777,327.656 354.813 M323.594 358.018 C 323.047 358.439,322.791 358.786,323.024 358.791 C 323.602 358.803,325.048 357.715,324.793 357.460 C 324.680 357.347,324.141 357.598,323.594 358.018 M264.600 390.000 C 263.829 390.331,263.831 390.345,264.676 390.372 C 265.158 390.387,265.664 390.220,265.800 390.000 C 266.092 389.527,265.701 389.527,264.600 390.000 M262.200 390.800 C 261.429 391.131,261.431 391.145,262.276 391.172 C 262.758 391.187,263.264 391.020,263.400 390.800 C 263.692 390.327,263.301 390.327,262.200 390.800 " stroke="none" fill="#6e3d74" fill-rule="evenodd"></path><path id="path3" d="M256.990 123.616 C 256.821 123.889,257.123 123.938,257.866 123.760 C 259.399 123.392,259.544 123.200,258.290 123.200 C 257.717 123.200,257.132 123.387,256.990 123.616 M263.633 123.344 C 264.105 123.750,266.043 123.993,265.810 123.616 C 265.668 123.387,265.083 123.200,264.510 123.200 C 263.936 123.200,263.542 123.265,263.633 123.344 M252.505 125.725 C 251.793 126.206,251.208 126.730,251.205 126.888 C 251.201 127.126,253.758 125.575,254.356 124.977 C 254.869 124.465,253.628 124.966,252.505 125.725 M248.599 128.925 C 245.875 131.773,245.687 132.327,248.301 129.800 C 249.666 128.480,250.787 127.355,250.792 127.300 C 250.828 126.863,249.944 127.518,248.599 128.925 M277.471 133.300 C 279.183 135.744,280.080 136.739,279.005 135.000 C 277.197 132.075,276.580 131.210,276.301 131.205 C 276.136 131.202,276.663 132.145,277.471 133.300 M241.814 137.835 C 241.441 138.404,241.227 138.961,241.339 139.072 C 241.450 139.183,241.829 138.718,242.181 138.037 C 242.959 136.533,242.744 136.415,241.814 137.835 M232.000 139.204 C 231.532 139.503,231.520 139.589,231.947 139.594 C 232.549 139.601,232.451 140.158,231.438 142.500 C 231.081 143.325,230.873 144.000,230.976 144.000 C 231.079 144.000,231.538 143.151,231.998 142.112 C 232.951 139.956,232.952 138.595,232.000 139.204 M225.200 142.833 L 224.200 143.648 225.500 143.014 C 226.215 142.665,226.800 142.294,226.800 142.190 C 226.800 141.792,226.163 142.048,225.200 142.833 M238.580 144.185 C 238.219 144.947,237.988 145.765,238.068 146.004 C 238.148 146.243,238.516 145.620,238.887 144.619 C 239.685 142.468,239.511 142.223,238.580 144.185 M201.000 153.414 C 199.385 154.154,200.351 154.155,202.054 153.416 C 202.794 153.094,203.130 152.839,202.800 152.848 C 202.470 152.857,201.660 153.112,201.000 153.414 M183.800 158.800 C 183.508 159.273,183.899 159.273,185.000 158.800 C 185.771 158.469,185.769 158.455,184.924 158.428 C 184.442 158.413,183.936 158.580,183.800 158.800 M177.400 160.400 C 177.108 160.873,177.499 160.873,178.600 160.400 C 179.371 160.069,179.369 160.055,178.524 160.028 C 178.042 160.013,177.536 160.180,177.400 160.400 M173.600 161.200 C 172.805 161.714,173.804 161.714,175.000 161.200 L 175.800 160.856 175.000 160.834 C 174.560 160.822,173.930 160.987,173.600 161.200 M165.000 162.800 C 163.981 163.238,165.032 163.238,166.400 162.800 C 167.204 162.543,167.243 162.477,166.600 162.468 C 166.160 162.462,165.440 162.611,165.000 162.800 M159.800 163.600 L 159.000 163.944 159.800 163.932 C 160.240 163.926,161.050 163.776,161.600 163.600 L 162.600 163.280 161.600 163.268 C 161.050 163.262,160.240 163.411,159.800 163.600 M290.244 164.600 C 290.573 166.071,290.802 166.390,290.794 165.367 C 290.791 164.945,290.605 164.330,290.382 164.000 C 290.085 163.562,290.048 163.724,290.244 164.600 M154.900 164.276 C 155.285 164.376,155.915 164.376,156.300 164.276 C 156.685 164.175,156.370 164.093,155.600 164.093 C 154.830 164.093,154.515 164.175,154.900 164.276 M144.400 165.200 C 142.763 165.454,142.727 165.483,144.000 165.510 C 144.770 165.527,146.210 165.397,147.200 165.220 C 149.597 164.794,147.128 164.776,144.400 165.200 M232.134 165.600 C 232.183 166.335,232.440 166.614,233.106 166.653 C 233.811 166.695,233.838 166.667,233.231 166.529 C 232.801 166.431,232.364 165.957,232.259 165.475 C 232.101 164.746,232.080 164.767,232.134 165.600 M133.400 166.006 C 132.697 166.188,133.442 166.228,135.200 166.103 C 136.850 165.985,138.275 165.824,138.367 165.744 C 138.675 165.478,134.613 165.691,133.400 166.006 M236.000 167.172 C 238.190 167.694,241.119 168.019,240.200 167.640 C 239.760 167.458,238.320 167.203,237.000 167.074 C 235.293 166.907,235.004 166.935,236.000 167.172 M122.100 169.646 C 120.737 170.519,120.295 171.106,121.500 170.443 C 122.418 169.939,123.856 168.827,123.600 168.819 C 123.490 168.816,122.815 169.188,122.100 169.646 M292.093 174.400 C 292.093 175.170,292.175 175.485,292.276 175.100 C 292.376 174.715,292.376 174.085,292.276 173.700 C 292.175 173.315,292.093 173.630,292.093 174.400 M114.175 176.268 C 113.559 177.076,113.259 177.611,113.509 177.456 C 114.021 177.140,115.753 174.800,115.475 174.800 C 115.376 174.800,114.791 175.461,114.175 176.268 M256.637 179.300 C 257.449 180.565,258.188 181.600,258.279 181.600 C 258.547 181.600,257.100 179.282,256.090 178.094 C 255.579 177.492,255.825 178.035,256.637 179.300 M112.016 178.918 C 110.680 181.043,109.934 182.400,110.101 182.400 C 110.356 182.400,112.858 178.325,112.700 178.167 C 112.628 178.095,112.320 178.433,112.016 178.918 M292.909 180.800 C 292.909 181.790,292.987 182.195,293.082 181.700 C 293.178 181.205,293.178 180.395,293.082 179.900 C 292.987 179.405,292.909 179.810,292.909 180.800 M221.720 186.800 C 221.720 188.010,221.795 188.505,221.887 187.900 C 221.978 187.295,221.978 186.305,221.887 185.700 C 221.795 185.095,221.720 185.590,221.720 186.800 M293.293 186.000 C 293.293 186.770,293.375 187.085,293.476 186.700 C 293.576 186.315,293.576 185.685,293.476 185.300 C 293.375 184.915,293.293 185.230,293.293 186.000 M107.049 189.415 C 106.912 189.773,106.815 190.366,106.834 190.733 C 106.853 191.100,107.027 190.869,107.221 190.220 C 107.598 188.958,107.465 188.333,107.049 189.415 M221.342 193.000 C 221.341 194.980,221.408 195.840,221.492 194.912 C 221.576 193.984,221.577 192.364,221.495 191.312 C 221.412 190.260,221.343 191.020,221.342 193.000 M293.770 198.400 C 293.770 203.130,293.828 205.065,293.898 202.700 C 293.969 200.335,293.969 196.465,293.898 194.100 C 293.828 191.735,293.770 193.670,293.770 198.400 M262.487 193.200 C 262.491 193.750,262.632 194.740,262.800 195.400 L 263.105 196.600 263.113 195.400 C 263.117 194.740,262.976 193.750,262.800 193.200 L 262.480 192.200 262.487 193.200 M106.154 198.400 C 106.154 201.150,106.218 202.275,106.296 200.900 C 106.374 199.525,106.374 197.275,106.296 195.900 C 106.218 194.525,106.154 195.650,106.154 198.400 M221.342 203.400 C 221.341 205.380,221.408 206.240,221.492 205.312 C 221.576 204.384,221.577 202.764,221.495 201.712 C 221.412 200.660,221.343 201.420,221.342 203.400 M262.619 201.927 C 262.455 202.877,262.417 203.750,262.534 203.868 C 262.826 204.159,263.326 201.373,263.100 200.721 C 263.000 200.435,262.784 200.977,262.619 201.927 M106.806 206.233 C 106.809 206.655,106.995 207.270,107.218 207.600 C 107.515 208.038,107.552 207.876,107.356 207.000 C 107.027 205.529,106.798 205.210,106.806 206.233 M221.720 210.000 C 221.720 211.210,221.795 211.705,221.887 211.100 C 221.978 210.495,221.978 209.505,221.887 208.900 C 221.795 208.295,221.720 208.790,221.720 210.000 M292.909 215.600 C 292.909 216.590,292.987 216.995,293.082 216.500 C 293.178 216.005,293.178 215.195,293.082 214.700 C 292.987 214.205,292.909 214.610,292.909 215.600 M256.313 217.517 C 255.950 218.131,254.651 219.582,253.426 220.740 C 252.202 221.898,251.200 222.963,251.200 223.108 C 251.200 223.480,255.031 219.691,256.466 217.900 C 257.127 217.075,257.511 216.400,257.320 216.400 C 257.129 216.400,256.676 216.903,256.313 217.517 M222.493 218.800 C 222.493 219.570,222.575 219.885,222.676 219.500 C 222.776 219.115,222.776 218.485,222.676 218.100 C 222.575 217.715,222.493 218.030,222.493 218.800 M115.800 222.400 C 116.883 223.500,117.860 224.400,117.970 224.400 C 118.080 224.400,117.283 223.500,116.200 222.400 C 115.117 221.300,114.140 220.400,114.030 220.400 C 113.920 220.400,114.717 221.300,115.800 222.400 M292.093 222.000 C 292.093 222.770,292.175 223.085,292.276 222.700 C 292.376 222.315,292.376 221.685,292.276 221.300 C 292.175 220.915,292.093 221.230,292.093 222.000 M245.600 226.433 L 244.600 227.248 245.900 226.614 C 246.615 226.265,247.200 225.894,247.200 225.790 C 247.200 225.392,246.563 225.648,245.600 226.433 M237.400 229.200 C 236.896 229.417,236.822 229.544,237.200 229.544 C 237.530 229.544,238.160 229.389,238.600 229.200 C 239.104 228.983,239.178 228.856,238.800 228.856 C 238.470 228.856,237.840 229.011,237.400 229.200 M232.267 229.867 C 232.120 230.013,232.003 230.328,232.006 230.567 C 232.010 230.851,232.114 230.841,232.307 230.536 C 232.470 230.281,233.142 229.993,233.801 229.896 L 235.000 229.720 233.767 229.660 C 233.088 229.627,232.413 229.720,232.267 229.867 M290.250 231.650 C 290.109 232.353,290.069 233.002,290.159 233.092 C 290.250 233.183,290.448 232.691,290.600 232.000 C 290.752 231.309,290.793 230.659,290.691 230.558 C 290.589 230.456,290.391 230.947,290.250 231.650 M152.900 231.476 C 153.285 231.576,153.915 231.576,154.300 231.476 C 154.685 231.375,154.370 231.293,153.600 231.293 C 152.830 231.293,152.515 231.375,152.900 231.476 M232.068 231.600 C 232.088 232.639,232.718 234.346,232.732 233.400 C 232.738 232.960,232.589 232.240,232.400 231.800 C 232.189 231.310,232.061 231.232,232.068 231.600 M233.041 235.600 C 233.370 237.586,234.894 242.839,235.086 242.648 C 235.238 242.495,233.898 237.315,233.159 235.200 C 232.880 234.403,232.857 234.484,233.041 235.600 M147.740 238.000 C 147.740 239.870,147.809 240.635,147.893 239.700 C 147.977 238.765,147.977 237.235,147.893 236.300 C 147.809 235.365,147.740 236.130,147.740 238.000 M139.675 238.800 C 139.664 240.890,139.788 242.934,139.948 243.343 C 140.109 243.752,140.177 242.312,140.099 240.143 C 139.907 234.818,139.697 234.152,139.675 238.800 M235.419 244.201 C 235.575 244.860,235.857 245.568,236.045 245.773 C 236.232 245.978,236.215 245.549,236.005 244.819 C 235.518 243.118,235.044 242.619,235.419 244.201 M140.406 245.833 C 140.409 246.255,140.595 246.870,140.818 247.200 C 141.115 247.638,141.152 247.476,140.956 246.600 C 140.627 245.129,140.398 244.810,140.406 245.833 M208.100 245.632 C 208.485 245.856,208.814 246.346,208.832 246.720 C 208.852 247.158,208.937 247.217,209.069 246.887 C 209.309 246.291,208.511 245.194,207.851 245.212 C 207.603 245.219,207.715 245.408,208.100 245.632 M236.425 246.647 C 236.393 247.221,238.022 251.275,238.496 251.800 C 238.695 252.020,238.466 251.210,237.987 250.000 C 236.595 246.481,236.452 246.175,236.425 246.647 M238.800 252.538 C 238.800 253.054,240.495 256.411,240.874 256.646 C 241.083 256.775,240.771 255.918,240.179 254.740 C 239.049 252.490,238.800 252.093,238.800 252.538 M204.653 256.391 C 204.074 257.267,203.600 258.117,203.600 258.280 C 203.600 258.444,203.842 258.223,204.139 257.789 C 205.441 255.881,206.078 254.800,205.899 254.800 C 205.793 254.800,205.232 255.516,204.653 256.391 M232.167 256.145 C 232.358 256.732,232.260 256.832,231.705 256.621 C 231.140 256.406,231.099 256.452,231.500 256.856 C 232.185 257.547,232.916 256.804,232.346 255.997 C 232.001 255.509,231.969 255.536,232.167 256.145 M156.887 259.005 C 157.704 259.860,158.438 260.479,158.517 260.380 C 158.597 260.281,157.928 259.581,157.031 258.825 L 155.400 257.450 156.887 259.005 M201.625 260.169 L 200.250 261.800 201.805 260.313 C 202.660 259.496,203.279 258.762,203.180 258.683 C 203.081 258.603,202.381 259.272,201.625 260.169 M149.429 262.838 C 150.073 263.629,150.681 264.208,150.779 264.125 C 150.878 264.042,150.351 263.395,149.609 262.687 L 148.258 261.400 149.429 262.838 M244.749 263.000 C 245.410 264.209,246.371 265.363,246.557 265.171 C 246.648 265.077,246.180 264.370,245.517 263.600 C 244.854 262.830,244.509 262.560,244.749 263.000 M195.500 264.629 C 194.005 265.440,194.096 265.778,195.600 265.000 C 196.260 264.659,196.800 264.294,196.800 264.190 C 196.800 263.932,196.757 263.947,195.500 264.629 M206.987 266.478 C 205.533 267.987,205.228 268.417,206.207 267.578 C 207.721 266.280,209.831 264.000,209.518 264.000 C 209.439 264.000,208.301 265.115,206.987 266.478 M275.578 265.500 L 274.200 267.000 275.700 265.622 C 277.096 264.338,277.384 264.000,277.078 264.000 C 277.012 264.000,276.337 264.675,275.578 265.500 M152.493 265.825 C 153.314 266.702,154.574 267.738,155.293 268.127 C 156.556 268.811,156.566 268.810,155.600 268.117 C 155.050 267.723,153.790 266.687,152.800 265.816 L 151.000 264.231 152.493 265.825 M248.528 267.458 C 249.588 268.572,251.163 269.882,252.028 270.368 C 254.031 271.493,254.087 271.164,252.100 269.945 C 251.275 269.439,249.700 268.217,248.600 267.228 L 246.600 265.431 248.528 267.458 M172.400 267.594 C 172.730 267.811,173.435 267.991,173.967 267.994 C 175.251 268.002,174.925 267.775,173.200 267.458 C 172.215 267.277,171.978 267.318,172.400 267.594 M272.575 268.500 L 271.400 269.800 272.700 268.625 C 273.415 267.979,274.000 267.394,274.000 267.325 C 274.000 267.016,273.670 267.288,272.575 268.500 M179.100 268.693 C 180.035 268.777,181.565 268.777,182.500 268.693 C 183.435 268.609,182.670 268.540,180.800 268.540 C 178.930 268.540,178.165 268.609,179.100 268.693 M178.716 276.697 C 180.099 276.775,182.259 276.774,183.516 276.695 C 184.772 276.616,183.640 276.552,181.000 276.553 C 178.360 276.553,177.332 276.618,178.716 276.697 " stroke="none" fill="#b48eb7" fill-rule="evenodd"></path><path id="path4" d="M260.307 123.490 C 261.026 123.579,262.106 123.577,262.707 123.486 C 263.308 123.395,262.720 123.322,261.400 123.324 C 260.080 123.326,259.588 123.401,260.307 123.490 M256.200 124.292 C 254.132 125.133,252.232 126.327,250.038 128.165 C 247.197 130.544,241.719 137.600,242.713 137.600 C 242.910 137.600,243.292 137.117,243.561 136.526 C 245.552 132.155,252.308 126.031,256.735 124.583 C 257.871 124.212,258.800 123.839,258.800 123.754 C 258.800 123.443,257.759 123.658,256.200 124.292 M264.400 124.000 C 264.730 124.213,265.360 124.378,265.800 124.366 L 266.600 124.344 265.800 124.000 C 264.604 123.486,263.605 123.486,264.400 124.000 M266.800 124.581 C 266.800 124.681,267.475 125.071,268.300 125.449 C 270.593 126.499,273.974 129.316,275.937 131.810 C 276.418 132.422,276.917 132.817,277.046 132.688 C 277.464 132.269,271.765 126.910,269.551 125.641 C 267.484 124.456,266.800 124.192,266.800 124.581 M240.618 140.818 C 239.797 142.381,239.204 143.737,239.299 143.832 C 239.395 143.928,240.127 142.711,240.927 141.127 C 241.727 139.544,242.321 138.187,242.246 138.113 C 242.172 138.039,241.439 139.256,240.618 140.818 M230.624 140.213 C 230.196 140.536,230.051 140.800,230.300 140.800 C 230.549 140.800,230.864 140.620,231.000 140.400 C 231.428 139.707,232.102 139.958,231.804 140.700 C 231.191 142.228,231.174 142.552,231.758 141.600 C 232.905 139.731,232.276 138.963,230.624 140.213 M227.500 141.877 C 226.456 142.458,225.669 143.003,225.753 143.087 C 225.921 143.254,228.773 141.741,229.380 141.162 C 229.999 140.572,229.513 140.757,227.500 141.877 M220.204 145.604 C 217.566 146.916,214.881 148.172,214.239 148.396 C 213.596 148.620,213.175 148.908,213.303 149.037 C 213.554 149.287,225.200 143.790,225.200 143.421 C 225.200 143.105,225.433 143.003,220.204 145.604 M210.123 150.145 C 208.089 151.003,207.104 151.619,207.833 151.580 C 208.366 151.552,213.075 149.269,212.600 149.269 C 212.380 149.269,211.265 149.664,210.123 150.145 M205.600 152.000 C 205.067 152.345,205.067 152.388,205.600 152.388 C 205.930 152.388,206.470 152.213,206.800 152.000 C 207.333 151.655,207.333 151.612,206.800 151.612 C 206.470 151.612,205.930 151.787,205.600 152.000 M194.600 156.000 C 193.829 156.331,193.831 156.345,194.676 156.372 C 195.158 156.387,195.664 156.220,195.800 156.000 C 196.092 155.527,195.701 155.527,194.600 156.000 M191.800 156.800 L 191.000 157.144 191.800 157.166 C 192.240 157.178,192.870 157.013,193.200 156.800 C 193.995 156.286,192.996 156.286,191.800 156.800 M288.006 157.033 C 288.009 157.455,288.195 158.070,288.418 158.400 C 288.715 158.838,288.752 158.676,288.556 157.800 C 288.227 156.329,287.998 156.010,288.006 157.033 M189.400 157.600 C 188.629 157.931,188.631 157.945,189.476 157.972 C 189.958 157.987,190.464 157.820,190.600 157.600 C 190.892 157.127,190.501 157.127,189.400 157.600 M186.400 158.400 L 185.400 158.720 186.400 158.754 C 186.950 158.773,187.670 158.613,188.000 158.400 C 188.764 157.906,187.942 157.906,186.400 158.400 M181.000 159.761 C 179.020 160.262,176.320 160.894,175.000 161.166 C 171.346 161.918,169.762 162.409,171.800 162.157 C 172.680 162.048,174.165 161.788,175.100 161.579 C 176.035 161.371,177.655 161.009,178.700 160.775 C 181.525 160.142,183.701 159.556,184.600 159.185 C 185.972 158.618,184.740 158.815,181.000 159.761 M288.868 159.800 C 288.862 160.240,289.011 160.960,289.200 161.400 C 289.638 162.419,289.638 161.368,289.200 160.000 C 288.943 159.196,288.877 159.157,288.868 159.800 M225.049 160.215 C 224.912 160.573,224.815 161.166,224.834 161.533 C 224.853 161.900,225.027 161.669,225.221 161.020 C 225.598 159.758,225.465 159.133,225.049 160.215 M232.839 163.192 C 232.598 164.318,232.418 165.546,232.440 165.920 C 232.462 166.294,232.733 165.446,233.041 164.035 C 233.350 162.624,233.529 161.396,233.440 161.307 C 233.351 161.218,233.081 162.066,232.839 163.192 M165.700 162.848 C 160.782 163.866,160.435 163.972,162.800 163.730 C 166.068 163.396,170.519 162.473,168.800 162.486 C 168.030 162.491,166.635 162.654,165.700 162.848 M289.606 163.233 C 289.609 163.765,289.789 164.470,290.006 164.800 C 290.282 165.222,290.323 164.985,290.142 164.000 C 289.825 162.275,289.598 161.949,289.606 163.233 M224.249 163.815 C 224.112 164.173,224.021 164.946,224.046 165.533 C 224.080 166.332,224.170 166.198,224.404 165.000 C 224.735 163.300,224.662 162.740,224.249 163.815 M155.400 164.422 C 154.389 164.616,154.978 164.651,157.000 164.516 C 158.760 164.399,160.275 164.235,160.367 164.151 C 160.644 163.900,157.111 164.092,155.400 164.422 M147.400 165.200 L 145.800 165.486 147.400 165.500 C 148.280 165.507,150.080 165.379,151.400 165.215 L 153.800 164.918 151.400 164.916 C 150.080 164.914,148.280 165.042,147.400 165.200 M136.400 166.000 L 134.200 166.270 136.600 166.283 C 137.920 166.290,140.350 166.168,142.000 166.012 L 145.000 165.729 141.800 165.730 C 140.040 165.730,137.610 165.852,136.400 166.000 M290.406 167.033 C 290.409 167.675,290.596 168.470,290.821 168.800 C 291.114 169.230,291.154 168.946,290.962 167.800 C 290.630 165.816,290.398 165.496,290.406 167.033 M130.000 166.813 C 129.354 167.029,129.780 167.066,131.200 166.919 C 132.410 166.794,133.475 166.626,133.567 166.546 C 133.887 166.265,130.991 166.483,130.000 166.813 M234.033 166.550 C 234.125 166.632,235.280 166.804,236.600 166.931 C 238.155 167.080,238.648 167.042,238.000 166.821 C 237.014 166.484,233.710 166.259,234.033 166.550 M223.456 167.684 C 223.321 168.188,223.228 169.050,223.249 169.600 C 223.272 170.189,223.431 169.871,223.636 168.825 C 224.003 166.952,223.873 166.127,223.456 167.684 M127.200 167.600 C 126.667 167.945,126.667 167.988,127.200 167.988 C 127.530 167.988,128.070 167.813,128.400 167.600 C 128.933 167.255,128.933 167.212,128.400 167.212 C 128.070 167.212,127.530 167.387,127.200 167.600 M244.400 168.983 C 244.400 169.163,246.802 170.400,247.150 170.400 C 247.497 170.400,245.894 169.367,245.100 169.079 C 244.715 168.939,244.400 168.896,244.400 168.983 M291.228 171.233 C 291.244 171.985,291.412 172.960,291.603 173.400 C 291.826 173.915,291.867 173.487,291.718 172.200 C 291.444 169.822,291.189 169.319,291.228 171.233 M119.331 171.839 C 116.675 173.819,113.825 176.906,111.798 180.000 C 109.606 183.346,107.487 187.964,108.405 187.397 C 108.622 187.263,108.800 186.912,108.800 186.617 C 108.800 183.914,115.997 174.406,120.100 171.687 C 121.480 170.773,121.866 170.400,121.431 170.400 C 121.337 170.400,120.392 171.048,119.331 171.839 M248.394 171.083 C 248.941 171.477,250.333 172.565,251.488 173.500 C 252.644 174.435,253.699 175.200,253.834 175.200 C 254.255 175.200,249.898 171.709,248.617 171.020 C 247.411 170.371,247.409 170.372,248.394 171.083 M222.514 175.000 C 222.517 176.100,222.595 176.503,222.687 175.895 C 222.779 175.286,222.777 174.386,222.682 173.895 C 222.587 173.403,222.511 173.900,222.514 175.000 M254.000 175.725 C 254.000 175.794,254.573 176.379,255.274 177.025 L 256.549 178.200 255.574 176.922 C 254.747 175.837,254.000 175.269,254.000 175.725 M292.040 177.033 C 292.062 177.895,292.233 179.050,292.421 179.600 C 292.642 180.248,292.680 179.755,292.531 178.200 C 292.263 175.420,291.982 174.751,292.040 177.033 M258.082 181.000 C 261.491 186.404,262.697 190.392,263.164 197.800 L 263.466 202.600 263.533 198.726 C 263.655 191.690,260.524 182.222,256.944 178.800 C 256.599 178.470,257.111 179.460,258.082 181.000 M221.731 182.200 C 221.733 183.740,221.805 184.321,221.892 183.491 C 221.979 182.661,221.977 181.401,221.889 180.691 C 221.800 179.981,221.729 180.660,221.731 182.200 M292.835 184.633 C 292.854 185.935,293.019 187.900,293.201 189.000 C 293.429 190.378,293.465 189.693,293.316 186.800 C 293.080 182.212,292.779 180.857,292.835 184.633 M221.314 187.800 C 221.317 188.900,221.395 189.303,221.487 188.695 C 221.579 188.086,221.577 187.186,221.482 186.695 C 221.387 186.203,221.311 186.700,221.314 187.800 M107.646 188.467 C 107.621 188.834,107.496 189.464,107.370 189.867 C 107.152 190.562,107.163 190.563,107.597 189.887 C 107.848 189.496,107.973 188.866,107.873 188.487 C 107.711 187.868,107.688 187.866,107.646 188.467 M220.968 198.200 C 220.968 202.600,221.026 204.455,221.098 202.321 C 221.170 200.188,221.170 196.588,221.099 194.321 C 221.027 192.055,220.968 193.800,220.968 198.200 M106.619 192.727 C 106.455 193.677,106.417 194.550,106.534 194.668 C 106.826 194.959,107.326 192.173,107.100 191.521 C 107.000 191.235,106.784 191.777,106.619 192.727 M106.487 202.400 C 106.491 202.950,106.632 203.940,106.800 204.600 L 107.105 205.800 107.113 204.600 C 107.117 203.940,106.976 202.950,106.800 202.400 L 106.480 201.400 106.487 202.400 M262.676 203.610 C 262.530 204.155,262.427 205.050,262.446 205.600 C 262.471 206.318,262.584 206.157,262.849 205.027 C 263.255 203.295,263.100 202.025,262.676 203.610 M292.996 209.306 C 292.842 211.156,292.790 213.014,292.880 213.435 C 292.970 213.856,293.181 212.427,293.349 210.260 C 293.517 208.094,293.569 206.236,293.465 206.132 C 293.361 206.028,293.150 207.457,292.996 209.306 M221.320 208.800 C 221.320 210.010,221.395 210.505,221.487 209.900 C 221.578 209.295,221.578 208.305,221.487 207.700 C 221.395 207.095,221.320 207.590,221.320 208.800 M261.625 208.300 C 258.719 219.054,247.216 228.341,235.000 229.795 C 232.060 230.146,232.000 230.236,232.729 233.218 C 233.443 236.141,233.794 236.143,233.167 233.220 C 232.617 230.658,232.691 230.583,236.294 230.035 C 248.041 228.248,259.656 218.306,262.151 207.900 C 262.551 206.233,262.089 206.584,261.625 208.300 M109.206 212.217 C 110.606 215.897,117.058 224.400,118.452 224.400 C 118.634 224.400,117.970 223.651,116.977 222.736 C 114.513 220.465,111.855 216.848,110.384 213.766 C 109.158 211.197,108.479 210.305,109.206 212.217 M221.728 214.400 C 221.728 215.830,221.801 216.415,221.889 215.700 C 221.978 214.985,221.978 213.815,221.889 213.100 C 221.801 212.385,221.728 212.970,221.728 214.400 M292.256 217.284 C 292.121 217.788,292.030 218.830,292.052 219.600 C 292.086 220.734,292.162 220.589,292.452 218.839 C 292.820 216.625,292.696 215.643,292.256 217.284 M222.509 221.600 C 222.509 222.590,222.587 222.995,222.682 222.500 C 222.778 222.005,222.778 221.195,222.682 220.700 C 222.587 220.205,222.509 220.610,222.509 221.600 M291.293 225.200 C 291.293 225.970,291.375 226.285,291.476 225.900 C 291.576 225.515,291.576 224.885,291.476 224.500 C 291.375 224.115,291.293 224.430,291.293 225.200 M223.228 227.033 C 223.244 227.675,223.416 228.560,223.610 229.000 C 223.847 229.534,223.886 229.202,223.727 228.000 C 223.446 225.880,223.188 225.380,223.228 227.033 M290.656 228.084 C 290.521 228.588,290.427 229.360,290.446 229.800 C 290.465 230.240,290.645 229.898,290.846 229.040 C 291.236 227.378,291.070 226.540,290.656 228.084 M130.800 230.026 C 131.762 230.309,139.017 230.480,138.200 230.200 C 137.980 230.124,136.000 229.988,133.800 229.897 C 131.600 229.806,130.250 229.864,130.800 230.026 M224.028 231.233 C 224.044 231.765,224.219 232.560,224.419 233.000 C 224.671 233.558,224.707 233.315,224.538 232.200 C 224.255 230.343,223.987 229.836,224.028 231.233 M149.100 231.082 C 149.595 231.178,150.405 231.178,150.900 231.082 C 151.395 230.987,150.990 230.909,150.000 230.909 C 149.010 230.909,148.605 230.987,149.100 231.082 M155.800 231.600 C 156.460 231.768,157.450 231.905,158.000 231.905 C 158.892 231.905,158.870 231.872,157.800 231.600 C 157.140 231.432,156.150 231.295,155.600 231.295 C 154.708 231.295,154.730 231.328,155.800 231.600 M289.849 231.815 C 289.712 232.173,289.618 232.856,289.641 233.333 C 289.667 233.881,289.803 233.686,290.010 232.803 C 290.360 231.316,290.265 230.733,289.849 231.815 M140.218 233.418 C 140.065 234.439,140.030 235.363,140.140 235.473 C 140.250 235.583,140.465 234.839,140.618 233.818 C 140.771 232.798,140.806 231.873,140.696 231.763 C 140.586 231.653,140.371 232.398,140.218 233.418 M147.856 232.484 C 147.721 232.988,147.627 233.760,147.646 234.200 C 147.665 234.640,147.845 234.298,148.046 233.440 C 148.436 231.778,148.270 230.940,147.856 232.484 M161.600 232.400 C 162.150 232.576,162.960 232.720,163.400 232.720 C 164.033 232.720,163.992 232.654,163.200 232.400 C 162.650 232.224,161.840 232.080,161.400 232.080 C 160.767 232.080,160.808 232.146,161.600 232.400 M166.400 233.200 C 166.950 233.376,167.850 233.517,168.400 233.513 C 169.298 233.506,169.278 233.474,168.200 233.200 C 166.508 232.769,165.056 232.769,166.400 233.200 M170.600 234.000 C 171.040 234.189,171.760 234.338,172.200 234.332 C 172.843 234.323,172.804 234.257,172.000 234.000 C 170.632 233.562,169.581 233.562,170.600 234.000 M174.400 234.782 C 174.730 235.005,175.345 235.191,175.767 235.194 C 176.790 235.202,176.471 234.973,175.000 234.644 C 174.124 234.448,173.962 234.485,174.400 234.782 M224.800 235.310 C 224.800 235.883,224.987 236.468,225.216 236.610 C 225.489 236.779,225.538 236.477,225.360 235.734 C 224.992 234.201,224.800 234.056,224.800 235.310 M288.966 235.900 C 288.829 236.505,288.466 237.886,288.160 238.968 C 287.853 240.050,287.675 241.009,287.764 241.098 C 287.853 241.187,288.193 240.301,288.520 239.130 C 289.391 236.002,289.640 234.800,289.415 234.800 C 289.305 234.800,289.103 235.295,288.966 235.900 M181.200 236.382 C 181.530 236.605,182.145 236.791,182.567 236.794 C 183.590 236.802,183.271 236.573,181.800 236.244 C 180.924 236.048,180.762 236.085,181.200 236.382 M233.634 236.800 C 233.646 237.130,233.811 237.760,234.000 238.200 L 234.344 239.000 234.366 238.200 C 234.378 237.760,234.213 237.130,234.000 236.800 C 233.655 236.267,233.615 236.267,233.634 236.800 M187.633 238.144 C 187.725 238.223,188.340 238.408,189.000 238.556 C 189.876 238.752,190.038 238.715,189.600 238.418 C 189.060 238.053,187.232 237.798,187.633 238.144 M234.434 239.600 C 234.446 239.930,234.611 240.560,234.800 241.000 L 235.144 241.800 235.166 241.000 C 235.178 240.560,235.013 239.930,234.800 239.600 C 234.455 239.067,234.415 239.067,234.434 239.600 M140.070 241.200 C 140.057 241.750,140.195 242.920,140.377 243.800 L 140.708 245.400 140.707 244.000 C 140.705 242.235,140.109 239.612,140.070 241.200 M287.112 242.400 C 286.976 242.950,286.750 243.850,286.610 244.400 C 286.452 245.022,286.597 244.879,286.992 244.021 C 287.342 243.262,287.568 242.362,287.494 242.021 C 287.410 241.631,287.268 241.772,287.112 242.400 M235.212 242.400 C 235.212 242.730,235.387 243.270,235.600 243.600 C 235.945 244.133,235.988 244.133,235.988 243.600 C 235.988 243.270,235.813 242.730,235.600 242.400 C 235.255 241.867,235.212 241.867,235.212 242.400 M236.012 244.800 C 236.012 245.130,236.187 245.670,236.400 246.000 C 236.745 246.533,236.788 246.533,236.788 246.000 C 236.788 245.670,236.613 245.130,236.400 244.800 C 236.055 244.267,236.012 244.267,236.012 244.800 M208.784 245.781 C 209.064 246.119,209.150 246.746,208.988 247.281 C 208.769 248.004,208.816 248.099,209.206 247.729 C 209.781 247.183,209.419 245.200,208.743 245.200 C 208.440 245.200,208.453 245.382,208.784 245.781 M140.834 246.000 C 140.846 246.330,141.011 246.960,141.200 247.400 L 141.544 248.200 141.566 247.400 C 141.578 246.960,141.413 246.330,141.200 246.000 C 140.855 245.467,140.815 245.467,140.834 246.000 M141.600 248.925 C 141.600 249.384,142.896 252.438,143.032 252.301 C 143.205 252.128,142.229 249.295,141.874 248.941 C 141.723 248.790,141.600 248.783,141.600 248.925 M219.200 250.183 C 219.200 250.363,221.602 251.600,221.950 251.600 C 222.297 251.600,220.694 250.567,219.900 250.279 C 219.515 250.139,219.200 250.096,219.200 250.183 M238.417 251.100 C 238.439 251.501,239.962 254.270,239.983 253.949 C 240.011 253.535,238.805 250.800,238.595 250.800 C 238.488 250.800,238.408 250.935,238.417 251.100 M151.400 252.400 C 151.741 253.060,152.111 253.600,152.221 253.600 C 152.331 253.600,152.141 253.060,151.800 252.400 C 151.459 251.740,151.089 251.200,150.979 251.200 C 150.869 251.200,151.059 251.740,151.400 252.400 M207.200 252.400 C 206.921 253.075,206.078 254.646,205.328 255.891 C 204.510 257.249,204.271 257.879,204.730 257.464 C 205.621 256.657,208.223 251.690,207.916 251.383 C 207.801 251.268,207.479 251.726,207.200 252.400 M143.485 253.500 C 144.892 257.286,151.124 264.979,154.800 267.468 C 155.350 267.840,154.462 266.898,152.828 265.373 C 149.565 262.330,145.617 257.272,144.375 254.545 C 143.601 252.846,142.964 252.098,143.485 253.500 M152.828 254.584 C 153.345 255.525,154.799 257.282,154.789 256.954 C 154.783 256.759,154.288 256.053,153.689 255.384 C 153.090 254.716,152.703 254.356,152.828 254.584 M227.200 254.184 C 227.200 254.294,227.920 254.751,228.800 255.200 C 229.680 255.649,230.400 255.926,230.400 255.816 C 230.400 255.706,229.680 255.249,228.800 254.800 C 227.920 254.351,227.200 254.074,227.200 254.184 M231.473 255.400 C 231.730 256.687,231.904 257.031,232.163 256.767 C 232.253 256.675,232.080 256.060,231.779 255.400 L 231.233 254.200 231.473 255.400 M241.807 258.000 C 245.018 263.754,252.051 271.200,254.274 271.200 C 254.449 271.200,253.414 270.410,251.974 269.444 C 249.139 267.542,247.353 265.604,244.115 260.915 C 242.108 258.010,241.105 256.743,241.807 258.000 M201.659 260.366 C 199.732 262.433,196.555 264.618,193.200 266.185 C 191.990 266.750,191.450 267.100,192.000 266.963 C 194.955 266.224,205.979 258.287,203.800 258.467 C 203.580 258.485,202.617 259.340,201.659 260.366 M211.388 260.700 C 208.561 264.961,204.373 268.811,199.600 271.536 C 198.390 272.227,197.570 272.794,197.777 272.796 C 200.547 272.824,209.706 264.438,212.954 258.900 C 213.804 257.450,212.707 258.712,211.388 260.700 M278.185 261.700 C 277.568 262.635,277.320 263.189,277.632 262.931 C 278.233 262.434,279.764 260.000,279.476 260.000 C 279.383 260.000,278.802 260.765,278.185 261.700 M158.598 260.796 C 159.276 261.894,167.427 266.706,167.865 266.268 C 167.968 266.166,167.033 265.616,165.789 265.046 C 164.545 264.477,162.361 263.196,160.937 262.200 C 159.512 261.204,158.459 260.572,158.598 260.796 M171.200 267.600 C 171.530 267.813,172.070 267.988,172.400 267.988 C 172.933 267.988,172.933 267.945,172.400 267.600 C 172.070 267.387,171.530 267.212,171.200 267.212 C 170.667 267.212,170.667 267.255,171.200 267.600 M189.000 267.600 L 188.200 267.944 189.000 267.966 C 189.440 267.978,190.070 267.813,190.400 267.600 C 191.195 267.086,190.196 267.086,189.000 267.600 M174.400 268.400 C 174.950 268.576,175.940 268.717,176.600 268.713 L 177.800 268.705 176.600 268.400 C 175.940 268.232,174.950 268.091,174.400 268.087 L 173.400 268.080 174.400 268.400 M185.000 268.400 L 183.800 268.705 185.000 268.713 C 185.660 268.717,186.650 268.576,187.200 268.400 L 188.200 268.080 187.200 268.087 C 186.650 268.091,185.660 268.232,185.000 268.400 M271.200 269.249 C 269.806 270.471,269.805 270.472,271.088 269.619 C 271.796 269.148,272.482 268.591,272.612 268.381 C 272.997 267.757,272.677 267.954,271.200 269.249 M267.400 271.409 C 266.300 271.927,264.860 272.389,264.200 272.435 C 263.060 272.516,263.052 272.528,264.041 272.681 C 265.003 272.829,269.600 271.127,269.600 270.622 C 269.600 270.350,269.795 270.280,267.400 271.409 M254.800 271.431 C 254.800 271.701,256.878 272.456,257.076 272.257 C 257.167 272.167,256.692 271.901,256.020 271.667 C 255.349 271.433,254.800 271.327,254.800 271.431 M260.705 273.083 C 261.202 273.179,261.922 273.175,262.305 273.075 C 262.687 272.975,262.280 272.896,261.400 272.901 C 260.520 272.905,260.207 272.987,260.705 273.083 M174.200 276.000 C 174.860 276.168,175.760 276.314,176.200 276.325 L 177.000 276.344 176.200 276.000 C 175.760 275.811,174.860 275.665,174.200 275.675 L 173.000 275.695 174.200 276.000 M185.400 276.000 L 184.600 276.344 185.400 276.325 C 185.840 276.314,186.740 276.168,187.400 276.000 L 188.600 275.695 187.400 275.675 C 186.740 275.665,185.840 275.811,185.400 276.000 " stroke="none" fill="#cca4cc" fill-rule="evenodd"></path></g></svg>